<?xml version="1.0" encoding="UTF-8" standalone="no"?>
<!-- Created with Inkscape (http://www.inkscape.org/) -->

<svg
   width="210mm"
   height="297mm"
   viewBox="0 0 210 297"
   version="1.1"
   id="svg1"
   xml:space="preserve"
   inkscape:version="1.4 (86a8ad7, 2024-10-11)"
   sodipodi:docname="zimways.svg"
   inkscape:export-filename="zimways.svg"
   inkscape:export-xdpi="96"
   inkscape:export-ydpi="96"
   xmlns:inkscape="http://www.inkscape.org/namespaces/inkscape"
   xmlns:sodipodi="http://sodipodi.sourceforge.net/DTD/sodipodi-0.dtd"
   xmlns:xlink="http://www.w3.org/1999/xlink"
   xmlns="http://www.w3.org/2000/svg"
   xmlns:svg="http://www.w3.org/2000/svg"><sodipodi:namedview
     id="namedview1"
     pagecolor="#ffffff"
     bordercolor="#000000"
     borderopacity="0.25"
     inkscape:showpageshadow="2"
     inkscape:pageopacity="0.0"
     inkscape:pagecheckerboard="0"
     inkscape:deskcolor="#d1d1d1"
     inkscape:document-units="mm"
     inkscape:zoom="0.5"
     inkscape:cx="639"
     inkscape:cy="741"
     inkscape:window-width="1366"
     inkscape:window-height="745"
     inkscape:window-x="-8"
     inkscape:window-y="-8"
     inkscape:window-maximized="1"
     inkscape:current-layer="layer1"
     inkscape:export-bgcolor="#ffffff00" /><defs
     id="defs1"><linearGradient
       id="linearGradient136"
       inkscape:collect="always"><stop
         style="stop-color:#899305;stop-opacity:1;"
         offset="0.14238413"
         id="stop135" /><stop
         style="stop-color:#850505;stop-opacity:1;"
         offset="0.46357614"
         id="stop136" /></linearGradient><linearGradient
       id="linearGradient130"
       inkscape:collect="always"><stop
         style="stop-color:#899305;stop-opacity:1;"
         offset="0.37086093"
         id="stop130" /><stop
         style="stop-color:#850505;stop-opacity:1;"
         offset="0.73841059"
         id="stop131" /></linearGradient><linearGradient
       id="linearGradient129"
       inkscape:collect="always"><stop
         style="stop-color:#899305;stop-opacity:1;"
         offset="0.63907278"
         id="stop128" /><stop
         style="stop-color:#850505;stop-opacity:1;"
         offset="0.95364237"
         id="stop129" /></linearGradient><linearGradient
       id="linearGradient122"
       inkscape:collect="always"><stop
         style="stop-color:#899305;stop-opacity:1;"
         offset="0.397351"
         id="stop123" /><stop
         style="stop-color:#850505;stop-opacity:1;"
         offset="0.80463576"
         id="stop124" /></linearGradient><linearGradient
       id="linearGradient119"><stop
         style="stop-color:#850505;stop-opacity:1;"
         offset="0.16225167"
         id="stop121" /><stop
         style="stop-color:#899305;stop-opacity:1;"
         offset="0.73509938"
         id="stop122" /></linearGradient><linearGradient
       id="linearGradient119-1"><stop
         style="stop-color:#4b632a;stop-opacity:1;"
         offset="0"
         id="stop119" /><stop
         style="stop-color:#4b632a;stop-opacity:0;"
         offset="1"
         id="stop120" /></linearGradient><linearGradient
       inkscape:collect="always"
       xlink:href="#linearGradient119"
       id="linearGradient120"
       x1="104.43522"
       y1="149.82307"
       x2="117.33296"
       y2="149.82307"
       gradientUnits="userSpaceOnUse"
       gradientTransform="matrix(0.98169084,-0.17230247,0.18943946,0.83861909,-27.091102,42.323198)" /><linearGradient
       inkscape:collect="always"
       xlink:href="#linearGradient122"
       id="linearGradient124"
       x1="78.102737"
       y1="143.20817"
       x2="82.652367"
       y2="143.20817"
       gradientUnits="userSpaceOnUse" /><linearGradient
       inkscape:collect="always"
       xlink:href="#linearGradient129"
       id="linearGradient128"
       gradientUnits="userSpaceOnUse"
       x1="115.42485"
       y1="139.45934"
       x2="124.88169"
       y2="139.45934"
       gradientTransform="matrix(1.3143924,0.00924499,-0.0369233,1.2938665,-29.635546,-35.915097)" /><linearGradient
       inkscape:collect="always"
       xlink:href="#linearGradient130"
       id="linearGradient131"
       x1="445.14703"
       y1="561.24866"
       x2="493.85053"
       y2="561.06113"
       gradientUnits="userSpaceOnUse" /><linearGradient
       inkscape:collect="always"
       xlink:href="#linearGradient136"
       id="linearGradient132"
       gradientUnits="userSpaceOnUse"
       gradientTransform="matrix(1.3320997,0.03061893,-0.05970424,1.254123,-26.891412,-26.983152)"
       x1="115.42485"
       y1="139.45934"
       x2="124.88169"
       y2="139.45934" /></defs><g
     inkscape:label="Layer 1"
     inkscape:groupmode="layer"
     id="layer1"><g
       id="g13"
       transform="translate(-74.198672,-61.158906)"><g
         id="g17"
         transform="matrix(1.0661582,0,0,1.1465711,-10.674072,-21.81334)" /></g><path
       style="fill:#505a46;fill-opacity:1;stroke-width:0.112305"
       d=""
       id="path29"
       transform="scale(0.26458333)" /><path
       style="fill:#899305;fill-opacity:1;stroke-width:0.0794114"
       d=""
       id="path82"
       transform="scale(0.26458333)" /><g
       id="g118"><path
         style="fill:#899305;fill-opacity:1;stroke-width:1.00954"
         d="m 146.8293,218.87221 c -1.46709,-0.43307 -2.88907,-1.09751 -3.897,-1.82103 -0.73171,-0.52527 -1.77617,-1.67481 -1.61683,-1.77952 0.023,-0.0151 0.0175,-0.0197 -0.0123,-0.01 -0.0714,0.0227 -0.23391,-0.32332 -0.174,-0.37043 0.0256,-0.02 0.0147,-0.0438 -0.0247,-0.0528 -0.0868,-0.02 0.32305,-0.74922 0.72553,-0.41428 0.13038,0.11693 0.38069,0.31352 0.55622,0.4369 0.17554,0.12345 0.36601,0.31324 0.42325,0.42194 0.13835,0.26271 1.04382,1.00372 1.61419,1.321 0.95312,0.53018 1.39447,0.67686 3.42119,1.13693 1.67228,0.37928 2.00543,0.43867 3.1865,0.56531 2.6568,0.28471 5.94205,0.35915 10.13054,0.22954 2.14322,-0.0663 7.11177,-0.30595 9.06041,-0.43698 1.66153,-0.11174 2.78727,-0.16862 5.46187,-0.27598 3.13595,-0.12588 3.19426,-0.12839 3.98953,-0.17125 1.13021,-0.0609 4.62934,-0.11127 6.49166,-0.0934 1.50371,0.0144 3.6093,0.11739 3.98118,0.19466 0.21184,0.0443 0.47782,0.0725 0.64157,0.0686 0.0812,-0.002 0.34796,0.0288 0.5929,0.0683 0.24495,0.0394 0.46907,0.0663 0.49807,0.0596 0.1245,-0.0287 2.21736,0.4173 2.30145,0.49049 0.0703,0.0612 0.0691,0.0734 -0.006,0.0569 -0.0766,-0.0168 -0.0827,-0.001 -0.0307,0.0809 0.0519,0.0821 0.0462,0.0973 -0.03,0.0783 -0.0926,-0.0232 -0.49979,-0.0142 -5.5585,0.12223 -3.40665,0.0918 -7.91775,0.31575 -10.95828,0.54387 -0.59655,0.0447 -1.58702,0.10965 -2.20102,0.14422 -0.61402,0.0346 -1.85667,0.11734 -2.76144,0.18394 -0.90475,0.0666 -2.11463,0.15025 -2.68861,0.18591 -0.57398,0.0357 -1.64762,0.10318 -2.38587,0.15005 -7.33327,0.46558 -11.65485,0.41552 -16.19043,-0.18752 -1.45394,-0.19332 -3.41099,-0.59237 -4.54136,-0.92602 z m -2.09587,-3.01236 c 0.071,0.001 0.16402,0.0238 0.20689,0.0494 0.0429,0.0258 -0.0148,0.0246 -0.12898,-0.003 -0.11382,-0.0271 -0.14883,-0.0482 -0.0779,-0.0467 z m 3.31266,0.64063 c 0.0894,0.007 0.21376,0.0356 0.2763,0.0642 0.0624,0.0288 -0.0103,0.0235 -0.16266,-0.012 -0.15195,-0.0354 -0.20305,-0.059 -0.11361,-0.0523 z m 0.8473,0.13709 c 0.0541,-0.004 0.11321,0.0112 0.13148,0.0342 0.0181,0.0234 -0.0261,0.027 -0.0984,0.008 -0.0798,-0.0213 -0.0928,-0.0378 -0.033,-0.0426 z m -5.60404,-1.41436 c 0.24297,0.19815 -0.10696,-0.0872 0,0 z m 6.17163,1.48608 c 0.0541,-0.004 0.11321,0.0112 0.13147,0.0342 0.0181,0.0235 -0.0261,0.0271 -0.0984,0.008 -0.0798,-0.0213 -0.0928,-0.0378 -0.033,-0.0426 z m -5.23354,-1.83519 c 0.0541,-0.004 0.11321,0.0111 0.13148,0.0342 0.0181,0.0235 -0.0261,0.027 -0.0984,0.008 -0.0798,-0.0213 -0.0929,-0.0378 -0.033,-0.0426 z m 1.56446,0.18355 c 0.0541,-0.004 0.11319,0.0113 0.13148,0.0342 0.0181,0.0235 -0.0261,0.027 -0.0984,0.008 -0.0798,-0.0213 -0.0928,-0.0378 -0.033,-0.0426 z m 0.17296,-0.94863 c 0.089,0.007 0.22899,0.0386 0.31112,0.0711 0.0821,0.0326 0.009,0.0272 -0.16183,-0.0119 -0.17111,-0.0391 -0.23829,-0.0658 -0.14929,-0.0593 z m -0.74668,-0.22623 c 0.0516,-0.004 0.12932,0.0135 0.17285,0.0395 0.0436,0.026 0.001,0.0297 -0.0937,0.008 -0.0951,-0.0217 -0.13067,-0.0431 -0.079,-0.0474 z m 1.66389,0.37941 c 0.0541,-0.004 0.1132,0.0112 0.13149,0.0342 0.0181,0.0235 -0.0261,0.027 -0.0984,0.008 -0.0798,-0.0213 -0.0928,-0.0378 -0.033,-0.0426 z m -2.05968,-0.52892 c 0.0541,-0.004 0.11321,0.0112 0.13148,0.0342 0.0181,0.0235 -0.0261,0.0271 -0.0984,0.008 -0.0797,-0.0213 -0.0929,-0.0378 -0.033,-0.0426 z m -1.41664,-0.69061 c -0.0494,-0.0423 -0.0585,-0.0696 -0.0206,-0.0609 0.0381,0.009 0.10949,0.0504 0.15883,0.0925 0.0494,0.0423 0.0585,0.0696 0.0206,0.0609 -0.0381,-0.009 -0.10949,-0.0504 -0.15883,-0.0925 z m -1.31275,-1.15642 -0.12781,-0.18885 0.15505,0.17618 c 0.14489,0.16467 0.17731,0.21909 0.12308,0.20669 -0.0123,-0.003 -0.08,-0.0902 -0.15032,-0.19402 z m -0.64506,-0.90214 c -0.063,-0.10646 -0.06,-0.10785 0.0316,-0.0147 0.0963,0.0978 0.121,0.15117 0.0641,0.13815 -0.0143,-0.003 -0.0574,-0.0589 -0.0957,-0.12341 z m 2.88456,-0.0951 c -0.063,-0.10647 -0.06,-0.10785 0.0316,-0.0147 0.0556,0.0565 0.0987,0.11205 0.0957,0.12341 -0.0119,0.0451 -0.0611,0.003 -0.12725,-0.1087 z m -3.35013,-0.98594 c -0.0303,-0.15291 -0.001,-0.18394 0.0509,-0.0544 0.0259,0.0641 0.0294,0.12489 0.008,0.13491 -0.0216,0.01 -0.048,-0.0262 -0.0587,-0.0806 z m 3.01125,0.61828 -0.1278,-0.18887 0.15503,0.17619 c 0.14491,0.16467 0.17732,0.21909 0.1231,0.20669 -0.0123,-0.003 -0.08,-0.0902 -0.15033,-0.19401 z m 21.32109,4.51218 c 0.0648,-0.0162 0.14884,-0.0222 0.18687,-0.0135 0.0381,0.009 0.0161,0.029 -0.0486,0.0451 -0.0648,0.0162 -0.14885,0.0222 -0.18687,0.0135 -0.0381,-0.009 -0.0161,-0.029 0.0486,-0.0451 z m -24.52041,-6.51104 c 0.0198,-0.0631 0.04,-0.0722 0.0505,-0.0235 0.01,0.0441 -0.005,0.0907 -0.0336,0.1036 -0.0277,0.013 -0.0356,-0.0231 -0.0173,-0.0802 z m 0.0292,-0.36583 c 0.0199,-0.0753 0.0437,-0.1025 0.053,-0.0605 0.009,0.0421 -0.007,0.10362 -0.0362,0.13685 -0.0292,0.0333 -0.0367,-0.001 -0.0168,-0.0764 z m 10.38816,2.28332 c 0.0198,-0.063 0.04,-0.0722 0.0505,-0.0235 0.01,0.0441 -0.005,0.0907 -0.0336,0.10358 -0.0277,0.013 -0.0356,-0.0231 -0.0173,-0.0802 z m -10.27843,-2.95504 c 0.0279,-0.10537 0.0534,-0.14524 0.0569,-0.0885 0.003,0.0566 -0.0194,0.14288 -0.0507,0.1916 -0.0313,0.0487 -0.0342,0.003 -0.006,-0.10296 z m 11.07596,-2.16316 c -0.15701,-0.0902 0.001,-0.28909 0.029,-0.45217 0.78326,-1.07317 2.18797,0.94497 2.87297,1.9601 0.81892,1.29669 0.39451,3.19115 0.0283,4.71909 -0.0508,0.10918 -0.37258,-3.2135 -0.68693,-3.75997 0,0 -0.44084,-1.23708 -2.24332,-2.46705 z m -5.12596,3.47309 c -0.10773,-0.0517 -0.14957,-0.12204 -0.13615,-0.22872 0.1674,-0.3155 0.73794,-1.32989 0.98428,-1.73527 0.24641,-0.40535 0.57174,-0.9569 0.72298,-1.22564 0.15118,-0.26875 0.46817,-0.78404 0.70433,-1.14511 3.56048,-4.24869 4.16841,-7.75771 5.82681,-7.12356 0.1666,0.0637 0.24614,0.0969 0.28938,-0.0667 0.47426,0.30724 -1.04383,2.31914 -1.63148,3.13612 -0.22202,0.32 -0.40498,0.6692 -0.60368,1.00679 -0.47105,0.71977 -1.26531,1.89002 -1.33975,1.97399 -0.0353,0.0398 -0.0662,0.10262 -0.0684,0.1396 -0.003,0.037 -0.0388,0.0753 -0.081,0.0849 -0.0422,0.01 -0.0688,0.0579 -0.0591,0.10697 0.01,0.0491 -0.0183,0.0811 -0.0629,0.0709 -0.0443,-0.0101 -0.0678,0.011 -0.052,0.0469 0.0157,0.0359 -0.0589,0.19164 -0.16508,0.3462 -0.10654,0.15446 -0.41514,0.6256 -0.68588,1.04696 -0.56553,0.88022 -2.62627,3.67643 -2.82681,3.72217 -0.12448,0.0287 -0.6325,-0.0689 -0.81564,-0.15684 z m 4.64008,0.7919 c 0.0326,-0.12025 0.058,-0.15985 0.0566,-0.088 -0.001,0.072 -0.0281,0.17028 -0.0589,0.21875 -0.0312,0.0484 -0.0301,-0.01 0.003,-0.13069 z m 9.76954,2.32039 c -0.7943,-0.29066 -1.7572,-0.89357 -2.37183,-1.4851 -0.32238,-0.31025 -1.23789,-1.46387 -1.21886,-1.53585 0.005,-0.0206 -0.12144,-0.2219 -0.28195,-0.4474 -0.16053,-0.2255 -0.27952,-0.41574 -0.26445,-0.42277 0.0151,-0.007 -0.0369,-0.10204 -0.11548,-0.21098 -0.16566,-0.22978 -1.26438,-2.48858 -1.46838,-3.01876 -0.076,-0.19747 -0.11301,-0.38879 -0.0823,-0.42517 0.0415,-0.0491 0.25665,-0.0244 0.83685,0.0961 1.04485,0.21707 1.19215,0.23983 1.26002,0.19429 0.10353,-0.0694 0.24327,0.0649 0.24353,0.23331 3.1e-4,0.23284 0.5468,1.64581 0.86803,2.24413 0.14844,0.2765 0.26141,0.51987 0.25104,0.54083 -0.0107,0.0208 0.0427,0.0947 0.11812,0.16383 0.0754,0.0693 0.14653,0.17424 0.15821,0.23352 0.0254,0.12919 0.8098,1.0563 1.16594,1.37809 0.13926,0.12586 0.45827,0.35955 0.7089,0.51938 l 0.45569,0.2906 1.17612,0.26583 c 1.63859,0.31882 4.32725,0.17537 5.14221,-0.2849 0.14334,-0.0625 0.33404,-0.11936 0.47738,-0.19085 0.0745,-0.0587 0.10576,-0.0335 0.40364,0.32454 0.0855,0.10276 0.28203,0.24443 0.43673,0.31479 1.58724,0.29521 4.59606,0.84285 0.28729,1.37582 -0.87536,0.0827 -5.62079,0.28588 -6.10787,0.26154 -0.46858,-0.0234 -1.65852,-0.26068 -2.07908,-0.41451 z m -20.12651,-5.03676 c 0.0249,-0.0901 0.0488,-0.11679 0.0522,-0.0595 0.004,0.0572 -0.0172,0.13092 -0.0463,0.16357 -0.0288,0.0328 -0.0315,-0.0144 -0.006,-0.1042 z m 0.13471,-0.2643 c 0.0198,-0.063 0.04,-0.0722 0.0505,-0.0235 0.01,0.0441 -0.005,0.0907 -0.0336,0.10359 -0.0277,0.0129 -0.0356,-0.0231 -0.0173,-0.0802 z m 53.06977,11.89644 c 0.0541,-0.004 0.11321,0.0112 0.13148,0.0342 0.0181,0.0234 -0.0261,0.027 -0.0984,0.008 -0.0797,-0.0213 -0.0929,-0.0378 -0.033,-0.0426 z m -54.09465,-13.03336 c 0.1144,-0.43284 2.24446,-2.22368 4.31961,-2.74925 0.64747,-0.16398 2.09818,-0.33108 2.19329,-0.25265 0.0331,0.0272 0.0657,0.0279 0.0727,0.002 0.0311,-0.11749 2.09725,0.0213 2.19499,0.14747 0.0283,0.0364 -0.32408,0.6944 -0.45718,0.85392 -0.12269,0.14695 -0.26321,0.18773 -0.41158,0.11935 -0.0838,-0.0386 -0.14604,-0.0385 -0.15626,1.1e-4 -0.009,0.0353 -0.043,0.0429 -0.0747,0.0167 -0.38034,-0.0411 -0.79403,-0.007 -1.18594,-0.0148 -3.61809,-0.0957 -4.52683,1.73945 -6.13589,1.98923 -0.3243,0.0503 -0.39596,0.028 -0.35894,-0.11203 z m 21.78712,4.11515 c 0.008,-0.0318 -0.0132,-0.0513 -0.0481,-0.0433 -0.13185,0.0305 -0.72848,-0.50743 -1.09427,-0.98644 -0.70827,-0.92747 -1.24757,-1.94446 -1.50257,-2.8335 -0.0969,-0.33803 -0.0994,-0.4335 -0.0132,-0.51099 0.0583,-0.0524 0.0834,-0.10044 0.0558,-0.10675 -0.0277,-0.006 0.019,-0.0325 0.10364,-0.0582 0.0846,-0.0257 0.17446,-0.0297 0.19966,-0.009 0.0252,0.0207 0.0532,0.0101 0.062,-0.0234 0.009,-0.0336 0.0432,-0.0389 0.0764,-0.0116 0.0331,0.0273 0.0676,0.0216 0.0764,-0.0116 0.009,-0.0336 0.0432,-0.0388 0.0764,-0.0116 0.0331,0.0273 0.0668,0.0245 0.0751,-0.007 0.008,-0.031 0.0575,-0.0316 0.10969,-10e-4 0.0541,0.0313 0.12288,0.0219 0.16039,-0.023 0.036,-0.0428 0.0886,-0.0587 0.11678,-0.0356 0.0742,0.0613 0.58123,0.003 0.60024,-0.0686 0.009,-0.0334 0.0409,-0.0404 0.0711,-0.0154 0.0302,0.025 0.0713,0.0256 0.091,0.002 0.0429,-0.0513 1.162,-0.23424 1.23266,-0.20155 0.027,0.0124 0.0559,-0.003 0.0644,-0.0354 0.0153,-0.058 0.52557,0.55059 1.61639,1.92767 0.55538,0.70117 0.57116,0.73067 0.41704,0.77997 -0.0881,0.0282 -0.16636,0.0746 -0.17391,0.10311 -0.008,0.0285 -0.21855,0.14023 -0.46888,0.24821 -0.25034,0.10797 -0.40364,0.1886 -0.34065,0.17918 0.063,-0.009 0.0104,0.0265 -0.11687,0.0798 -0.12723,0.0533 -0.20648,0.10343 -0.17609,0.11139 0.0303,0.008 -0.0149,0.0369 -0.10029,0.0642 -0.0855,0.0273 -0.12639,0.0572 -0.0909,0.0663 0.0355,0.009 -6.9e-4,0.0376 -0.0809,0.0633 -0.0801,0.0257 -0.14908,0.0678 -0.15345,0.0937 -0.005,0.0257 -0.0579,0.11395 -0.11901,0.19577 -0.18702,0.25025 -0.51108,0.89613 -0.44157,0.88009 0.11656,-0.0269 0.0264,0.14588 -0.10901,0.20895 -0.15407,0.0717 -0.19637,0.0692 -0.17533,-0.0103 z m 16.51634,3.7378 c 0.1268,0.0161 0.32903,0.0624 0.44939,0.10275 0.12039,0.0404 0.0166,0.0272 -0.23051,-0.0293 -0.24718,-0.0565 -0.34567,-0.0895 -0.21888,-0.0734 z m -0.60402,-0.19382 c 0.0541,-0.004 0.11318,0.0113 0.13148,0.0342 0.0181,0.0235 -0.0261,0.0271 -0.0984,0.008 -0.0798,-0.0214 -0.0928,-0.0378 -0.033,-0.0426 z m 1.80621,0.43039 c 0.003,-0.0116 0.0712,-0.0196 0.15139,-0.018 0.0802,0.002 0.13982,0.0258 0.13273,0.0526 -0.007,0.0273 -0.0754,0.0354 -0.1514,0.018 -0.076,-0.0174 -0.13568,-0.0414 -0.13272,-0.0526 z m -16.30504,-3.87006 c -0.15824,-0.22719 0.047,-0.61783 0.39943,-0.76036 0.10079,-0.0408 0.12941,-0.063 0.0634,-0.0494 -0.066,0.0136 0.16212,-0.10406 0.5069,-0.26144 0.65786,-0.30029 1.26122,-0.66804 1.46801,-0.89475 0.24245,-0.26581 0.21755,-0.388 -0.19326,-0.94819 -0.66917,-0.91249 -1.39346,-1.83404 -2.37311,-3.01944 -1.16821,-1.41356 -1.59514,-1.99038 -1.82145,-2.46091 -0.21617,-0.44945 -0.23848,-0.89005 -0.0591,-1.16677 l 0.12714,-0.19616 -0.054,0.23163 c -0.0532,0.22857 -0.01,0.5375 0.0782,0.55758 0.0249,0.006 0.17071,-0.17253 0.32418,-0.39601 0.29977,-0.43654 0.72742,-0.76009 1.38936,-1.05115 0.53086,-0.23341 2.0335,-0.58084 3.06411,-0.70844 0.65763,-0.0814 0.86602,-0.1286 0.77911,-0.17633 -0.1021,-0.0561 -0.0805,-0.0739 0.15461,-0.12796 0.34341,-0.0789 0.95798,-0.30836 2.51692,-0.24676 0.67843,0.0268 1.87627,0.15768 2.34986,0.34571 1.24518,0.49436 1.17981,0.46378 2.00812,0.88979 0.39829,0.20485 0.61357,0.16127 0.61257,0.20441 -0.046,1.98451 -4.11463,2.2484 -6.19877,2.11311 -1.30759,-0.0849 -2.28364,-0.0979 -2.30142,-0.0307 0.87265,2.36684 3.39272,5.27039 3.43964,6.12427 0.007,0.2155 -0.39058,0.59668 -0.56387,0.6947 -0.35952,0.2034 -1.25945,0.65524 -1.25247,0.62887 0.003,-0.0112 -0.17575,0.0719 -0.3971,0.18464 -1.20412,0.61315 -2.82777,0.90914 -3.78567,0.69012 -0.10631,-0.0243 -0.23289,-0.10093 -0.28124,-0.17047 z m 14.23674,3.32172 c 0.0541,-0.004 0.11322,0.0112 0.13148,0.0342 0.0181,0.0235 -0.0261,0.0271 -0.0984,0.008 -0.0798,-0.0213 -0.0928,-0.0378 -0.033,-0.0426 z m 3.00189,0.57026 c 0.0541,-0.004 0.11321,0.0112 0.13149,0.0342 0.0181,0.0235 -0.0261,0.0271 -0.0984,0.008 -0.0798,-0.0213 -0.0928,-0.0378 -0.033,-0.0426 z m 0.29101,0.009 c 0.0541,-0.004 0.11322,0.0112 0.13149,0.0342 0.0181,0.0235 -0.0261,0.027 -0.0984,0.008 -0.0798,-0.0213 -0.0929,-0.0378 -0.033,-0.0426 z m -28.43633,-6.67992 c -0.063,-0.10646 -0.06,-0.10785 0.0315,-0.0147 0.0556,0.0566 0.0987,0.11205 0.0957,0.12341 -0.0119,0.0451 -0.0611,0.003 -0.12724,-0.10869 z m 24.12713,5.56017 c -0.0494,-0.0423 -0.0585,-0.0696 -0.0205,-0.0609 0.0381,0.009 0.1095,0.0503 0.15882,0.0925 0.0494,0.0423 0.0585,0.0696 0.0206,0.0609 -0.0381,-0.009 -0.10952,-0.0503 -0.15883,-0.0926 z m 5.96981,0.99172 c 0.004,-0.0151 0.0764,-0.0395 0.161,-0.0543 0.0846,-0.0149 0.1505,-0.0146 0.14652,4.4e-4 -0.004,0.0151 -0.0764,0.0395 -0.161,0.0543 -0.0846,0.0148 -0.15053,0.0147 -0.14655,-3.5e-4 z m -14.12327,-3.42983 c 0.53593,-0.26962 0.38567,-0.0356 0,-6e-5 z m 14.93147,3.14613 c 0.15686,-0.0759 0.30076,-0.13441 0.31978,-0.13006 0.019,0.004 -0.0938,0.07 -0.25064,0.14587 -0.15686,0.0759 -0.30076,0.13442 -0.31978,0.13007 -0.019,-0.004 0.0938,-0.07 0.25064,-0.14588 z m -14.32741,-3.43805 c 0.37301,-0.16308 0.5735,-0.45153 0.89249,-0.68295 0.25856,-0.23325 0.83926,-0.26629 1.34655,-0.33709 0.50476,-0.0669 0.77547,-0.15588 0.87479,-0.18437 0.90034,-0.25828 1.50725,-0.38603 3.59496,-0.51172 0.95006,-0.0454 3.56753,0.10016 0.62495,0.27067 -2.82987,0.16396 -5.98286,0.55393 -5.44774,0.67379 0.31325,0.0706 4.16942,-0.14972 6.83906,-0.39 0.45442,-0.12155 5.10275,0.17502 3.31337,-0.77194 -0.10673,-0.0251 -0.11031,-0.0362 -0.0186,-0.0583 -0.45001,-0.50848 -0.24841,-0.64486 0.41604,-0.45232 0.1021,-0.0714 0.46123,-0.0139 0.41499,-0.0736 -0.0156,-0.0201 0.0144,-0.0466 0.067,-0.0586 0.0574,-0.0132 0.0716,-0.003 0.0356,0.025 -0.0329,0.0258 0.006,0.10407 0.0867,0.17391 0.17272,0.14963 0.24131,0.17455 0.19608,0.0712 -0.0198,-0.0451 -0.006,-0.0527 0.0343,-0.0194 0.0368,0.0303 0.0399,0.0873 0.007,0.1266 -0.0332,0.0393 -0.0269,0.0823 0.0145,0.0959 0.17642,0.0575 0.20008,0.0702 0.24228,0.13005 0.0258,0.0366 0.0126,0.0382 -0.0316,0.004 -0.0419,-0.0325 -0.0833,-0.0316 -0.0922,0.002 -0.009,0.0336 -0.0365,0.0445 -0.0614,0.0242 -0.0249,-0.0204 -0.0824,0.0824 -0.12799,0.22855 -0.0694,0.2229 -0.0632,0.27011 0.0414,0.29402 0.0841,0.0192 0.12354,0.0875 0.12215,0.21135 -0.001,0.10055 0.0145,0.17531 0.0345,0.16589 0.0202,-0.009 0.0348,-0.11203 0.0325,-0.22813 -0.002,-0.11611 0.0297,-0.23761 0.0709,-0.27001 0.0472,-0.0371 0.0651,0.0563 0.0487,0.25195 -0.0236,0.27982 -0.0172,0.29555 0.0642,0.15741 0.0852,-0.14448 0.0876,-0.14052 0.0398,0.0671 -0.0652,0.286 -0.18172,0.46056 -0.26204,0.39433 -0.0411,-0.0338 -0.0555,-0.012 -0.041,0.0614 0.0159,0.0802 -0.0322,0.13353 -0.16353,0.18034 -0.10234,0.0365 -0.13512,0.0608 -0.0727,0.0539 0.0624,-0.007 -0.087,0.0754 -0.33168,0.18275 -0.5617,0.24654 -0.91247,0.3002 -2.36044,0.36118 -0.64201,0.0271 -1.78588,0.0802 -2.54194,0.11817 -0.75605,0.038 -1.46894,0.0707 -1.5842,0.0728 -0.11528,0.002 -0.56712,0.0264 -1.00412,0.0541 -1.05718,0.067 -3.31234,0.0764 -3.3879,0.0141 -0.0331,-0.0272 -0.0667,-0.0245 -0.075,0.007 -0.008,0.031 -0.0578,0.0314 -0.11022,9.6e-4 -0.0525,-0.0304 -0.1032,-0.0257 -0.11298,0.0113 -0.0258,0.0974 -0.95839,-0.16939 -1.20838,-0.34539 -0.20116,-0.22666 -0.89472,0.0991 -0.41915,-0.1021 z m 27.59485,6.17072 c 0.0541,-0.004 0.11321,0.0112 0.13149,0.0342 0.0181,0.0235 -0.0261,0.0271 -0.0984,0.008 -0.0798,-0.0213 -0.0928,-0.0378 -0.033,-0.0426 z m -3.56623,-0.9315 c 0.0541,-0.004 0.11321,0.0112 0.13149,0.0342 0.0181,0.0235 -0.0261,0.027 -0.0984,0.008 -0.0798,-0.0213 -0.0928,-0.0378 -0.033,-0.0426 z m 0.56296,0.0719 c 0.0516,-0.004 0.12932,0.0135 0.17284,0.0395 0.0436,0.0261 0.001,0.0297 -0.0936,0.008 -0.0951,-0.0217 -0.13068,-0.0431 -0.0791,-0.0474 z m 0.71047,0.10324 c 0.0541,-0.004 0.1132,0.0112 0.13149,0.0342 0.0181,0.0235 -0.0261,0.027 -0.0984,0.008 -0.0797,-0.0213 -0.0928,-0.0378 -0.033,-0.0426 z m 2.41525,0.55327 c 0.0516,-0.004 0.12935,0.0134 0.17285,0.0395 0.0436,0.026 0.001,0.0297 -0.0937,0.008 -0.0951,-0.0217 -0.13068,-0.0431 -0.0791,-0.0474 z m -16.82238,-4.31292 c 0.089,0.007 0.229,0.0386 0.31112,0.0711 0.0821,0.0326 0.009,0.0273 -0.16183,-0.0119 -0.1711,-0.0391 -0.23829,-0.0658 -0.14929,-0.0593 z m 2.80403,-0.27574 c 0.15686,-0.0759 0.30076,-0.13442 0.31977,-0.13007 0.019,0.004 -0.0938,0.07 -0.25063,0.14588 -0.15686,0.0759 -0.30076,0.1344 -0.31977,0.13005 -0.019,-0.004 0.0938,-0.0699 0.25063,-0.14586 z m -11.95606,-3.45608 c 0.32711,-0.25736 -1.22142,-2.03034 -1.42898,-2.92796 -0.0369,0.0315 0.0182,0.0162 0.12214,-0.0341 1.21839,0.0953 5.68242,-1.24193 5.17873,-0.48691 -0.76799,0.81017 -1.5004,2.20836 -2.10549,3.29574 -0.2184,-0.0128 -0.71875,0.0272 -1.11188,0.0888 -0.3931,0.0616 -0.68753,0.0906 -0.65424,0.0645 z m -10.06429,-2.82697 c 0.0648,-0.0162 0.14883,-0.0222 0.18686,-0.0135 0.0381,0.009 0.0161,0.029 -0.0486,0.0451 -0.0647,0.0162 -0.14883,0.0222 -0.18686,0.0135 -0.0381,-0.009 -0.0161,-0.029 0.0486,-0.0451 z m -4.52437,-1.32849 c -0.86688,-0.31396 -1.78868,-0.84481 -1.98251,-1.61419 -0.39201,-1.48695 1.26637,-2.72035 2.02773,-2.92406 0.95124,-0.51701 3.08162,-0.77842 4.33434,-0.49334 0.43742,0.0996 0.51247,0.15435 0.33743,0.2462 -0.19331,0.10147 -0.69412,0.81389 -0.84306,1.19928 -0.11218,0.29026 -0.12464,0.4363 -0.0733,0.83088 0.0345,0.26333 0.12029,0.62311 0.19057,0.79952 0.13896,0.34887 1.02298,1.643 1.35201,1.9793 0.11238,0.11487 0.19829,0.23179 0.19087,0.25983 -0.0349,0.13188 -2.03355,0.25796 -2.9825,0.18815 -0.84782,-0.0624 -2.0202,-0.27894 -2.55148,-0.47134 z m -0.4352,-2.54721 c 0.49986,-0.88483 1.4409,-1.19251 2.35204,-1.52649 0.0742,-0.044 0.3534,-0.1272 0.62071,-0.18498 0.31605,-0.0683 0.49537,-0.1404 0.51275,-0.20611 0.0829,-0.31332 -0.1287,-0.39796 -0.8288,-0.33161 -0.77557,0.0781 -0.82653,0.11857 -1.55318,0.39476 -0.54041,0.19735 -1.00544,0.48987 -1.20377,0.75722 -0.23067,0.31095 -0.31396,0.73823 -0.20122,1.03239 0.11261,0.29388 0.17102,0.30645 0.30151,0.0648 z m 28.66557,8.30915 c 0.0517,-0.1957 0.0854,-0.2729 0.075,-0.17152 -0.0106,0.10132 -0.053,0.26146 -0.0941,0.35582 -0.0411,0.0944 -0.0327,0.0114 0.0191,-0.1843 z m 6.80042,1.57436 c 0.0516,-0.004 0.12934,0.0134 0.17284,0.0395 0.0436,0.026 10e-4,0.0297 -0.0937,0.008 -0.0951,-0.0217 -0.13067,-0.0431 -0.0791,-0.0474 z m -42.84008,-10.0138 c 0.0563,0.0325 0.0941,0.006 0.1122,-0.0777 0.0223,-0.10394 0.0613,-0.11783 0.21588,-0.0772 0.26951,0.0709 0.27803,-0.0261 0.11608,-1.32393 -0.0768,-0.6156 -0.11881,-1.13568 -0.0933,-1.15572 0.0255,-0.02 0.01,-0.0447 -0.0342,-0.0548 -0.0443,-0.0101 -0.053,-0.0513 -0.0191,-0.0915 0.0338,-0.0402 0.0342,-0.0793 0.001,-0.0869 -0.0332,-0.008 -0.0289,-0.0629 0.01,-0.12294 0.0449,-0.0699 0.0403,-0.10225 -0.0129,-0.09 -0.0533,0.0122 -0.0578,-0.0204 -0.0128,-0.0901 0.043,-0.0669 0.0396,-0.10214 -0.009,-0.0909 -0.0487,0.0112 -0.0525,-0.0363 -0.01,-0.12376 0.0543,-0.11124 0.0487,-0.12789 -0.0258,-0.0768 -0.10593,0.0727 -0.10512,-0.0158 6.7e-4,-0.0937 0.0658,-0.0486 0.33298,-0.0708 0.54236,-0.0451 0.0586,0.007 0.15692,0.01 0.21857,0.005 0.0617,-0.004 0.45534,0.004 0.87491,0.0185 l 0.76289,0.0263 -0.87087,-0.17245 c -0.479,-0.0948 -1.04098,-0.18509 -1.24886,-0.20059 -0.2695,-0.0201 -0.42273,-0.0573 -0.53403,-0.12931 -0.406,-0.26454 0.01,-0.21846 1.8525,0.20527 1.71018,0.39309 2.31718,0.60293 1.9799,0.68401 -0.0634,0.0153 -0.094,0.0329 -0.0679,0.0394 0.0429,0.0106 -0.34459,0.64283 -0.49982,0.81542 -0.0357,0.0397 -0.0669,0.10444 -0.0691,0.14384 -0.002,0.0394 -0.0385,0.0638 -0.0804,0.0542 -0.042,-0.01 -0.0652,0.008 -0.0519,0.0384 0.0347,0.0792 -0.28995,0.63817 -0.3611,0.6219 -0.0324,-0.007 -0.0482,0.011 -0.035,0.041 0.0359,0.082 -0.67544,1.32382 -0.7916,1.38184 -1.61773,0.42468 -1.90598,0.001 -1.85928,0.0283 z m 42.28546,9.64971 c -0.063,-0.10646 -0.0601,-0.10785 0.0316,-0.0147 0.0963,0.0978 0.12098,0.15116 0.0641,0.13815 -0.0143,-0.003 -0.0574,-0.0589 -0.0957,-0.12341 z m -0.0472,-0.28654 c 0.0248,-0.0901 0.0488,-0.11679 0.0522,-0.0595 0.004,0.0572 -0.0172,0.13092 -0.0463,0.16356 -0.0288,0.0328 -0.0314,-0.0144 -0.006,-0.1041 z m -6.10214,-1.63256 c 0.0198,-0.0631 0.04,-0.0722 0.0505,-0.0235 0.01,0.0441 -0.005,0.0907 -0.0336,0.10359 -0.0277,0.013 -0.0356,-0.0231 -0.0173,-0.0802 z m -2.14665,-0.49917 c 0.007,-0.0269 0.0669,-0.0846 0.13271,-0.12841 0.0936,-0.0621 0.12792,-0.0611 0.15675,0.005 0.0251,0.0573 0.0134,0.065 -0.0366,0.0237 -0.0489,-0.0404 -0.0746,-0.0275 -0.0769,0.04 -0.002,0.0553 -0.0451,0.1025 -0.0961,0.1048 -0.0511,0.002 -0.0869,-0.0178 -0.0799,-0.0446 z m -7.80597,-2.0668 c 0.0198,-0.0631 0.04,-0.0722 0.0505,-0.0235 0.0241,0.10624 -0.0954,0.16216 -0.0509,0.0234 z m 16.44585,1.97228 c -0.10367,-0.0655 -0.22032,-0.16934 -0.25921,-0.23084 -0.10458,-0.16542 0.0259,-0.55132 0.21631,-0.64003 0.29905,-0.13924 9.46062,-0.75024 10.29729,-0.68674 0.30236,0.023 0.56727,0.14402 0.54007,0.2469 -0.0118,0.0446 0.008,0.0878 0.0441,0.0961 0.13975,0.032 -0.17935,0.31604 -0.48624,0.43293 -0.35525,0.13527 -2.45181,0.3612 -6.57094,0.70807 -3.49812,0.29456 -3.43349,0.29331 -3.78142,0.0736 z m -18.70957,-4.32073 c 8e-5,0 -7e-5,1.3e-4 -1e-4,2e-4 z m 27.4124,5.95107 c 0.0198,-0.063 0.04,-0.0722 0.0505,-0.0235 0.01,0.0441 -0.005,0.0907 -0.0336,0.1036 -0.0277,0.013 -0.0356,-0.0231 -0.0173,-0.0802 z m -52.76037,-12.5858 c 0.0198,-0.063 0.04,-0.0722 0.0505,-0.0235 0.01,0.0441 -0.005,0.0907 -0.0336,0.10358 -0.0277,0.013 -0.0356,-0.0231 -0.0173,-0.0802 z m 44.13242,8.17705 c -0.10183,-0.0724 -0.21333,-0.18105 -0.24773,-0.24153 -0.0808,-0.14205 0.0101,-0.4848 0.15401,-0.58033 0.11427,-0.0758 1.27472,-0.17093 5.30159,-0.43444 4.39241,-0.28741 5.81213,-0.29772 5.9237,-0.043 0.0588,0.13413 -0.0251,0.35461 -0.15419,0.40589 -0.10918,0.0433 -0.11013,0.0469 -0.008,0.0317 0.20132,-0.0301 -0.19875,0.15888 -0.46778,0.22098 -0.27688,0.0639 -2.21312,0.24158 -5.59181,0.5131 -4.78162,0.38427 -4.55651,0.37841 -4.90941,0.12766 z m -32.98716,-8.82613 c 0.0516,-0.004 0.12932,0.0135 0.17285,0.0395 0.0436,0.026 0.001,0.0297 -0.0937,0.008 -0.0951,-0.0217 -0.13068,-0.0431 -0.0791,-0.0474 z m 1.51352,-0.109 c 0.10924,-0.0548 0.21412,-0.0962 0.23314,-0.0918 0.019,0.004 -0.0548,0.0528 -0.164,0.10762 -0.10924,0.0548 -0.21413,0.0962 -0.23314,0.0918 -0.019,-0.004 0.0548,-0.0528 0.164,-0.10763 z m 15.27052,3.05621 c 0.0438,-0.1656 0.0746,-0.23039 0.0687,-0.14395 -0.006,0.0865 -0.0418,0.22192 -0.0796,0.30108 -0.0377,0.0792 -0.0328,0.008 0.011,-0.15713 z m 15.47296,3.44141 c 0.0516,-0.004 0.12932,0.0135 0.17284,0.0395 0.0436,0.0261 0.001,0.0297 -0.0937,0.008 -0.0951,-0.0217 -0.13066,-0.043 -0.079,-0.0474 z m -14.16623,-3.70858 c 0.0118,-0.0212 0.0148,-0.0794 0.005,-0.12939 -0.009,-0.0499 -0.0436,-0.26684 -0.0769,-0.48198 -0.31797,-2.0571 -1.99491,-4.88903 -4.08668,-6.90135 -0.34879,-0.33555 -0.71115,-0.72003 -0.80524,-0.85438 l -0.17107,-0.2443 0.27421,-0.007 c 0.15086,-0.004 0.69716,-0.0632 1.21408,-0.13172 0.51691,-0.0685 0.96369,-0.1049 0.99285,-0.0809 4.80459,-0.38542 3.94068,-0.004 8.85742,-1.39768 0.31096,-0.15043 0.28533,-0.22284 -0.14535,-0.41048 l -0.25782,-0.1123 0.32609,0.0684 c 0.2463,0.0522 0.36073,0.10854 0.46814,0.23183 0.15998,0.18359 0.44311,0.97961 1.60137,4.50229 0.44271,1.34643 0.88994,2.67555 0.99385,2.95363 0.1039,0.27808 0.25339,0.71039 0.3322,0.96069 0.24226,0.7695 0.39337,0.70626 -2.73755,1.14553 -4.03924,0.56669 -6.75059,0.93984 -6.78011,0.93309 -0.0146,-0.003 -0.0167,-0.0234 -0.005,-0.0446 z m -6.78273,-1.89528 c 0.0541,-0.004 0.11322,0.0112 0.13149,0.0342 0.0181,0.0234 -0.0261,0.027 -0.0984,0.008 -0.0798,-0.0213 -0.0928,-0.0378 -0.033,-0.0426 z m 1.72388,0.39519 c 0.0516,-0.004 0.12931,0.0135 0.17285,0.0395 0.0436,0.026 0.001,0.0297 -0.0938,0.008 -0.0951,-0.0217 -0.13067,-0.043 -0.0791,-0.0474 z m -12.27777,-3.73723 c 0.0541,-0.004 0.11318,0.0113 0.13148,0.0342 0.0181,0.0235 -0.0261,0.0271 -0.0984,0.008 -0.0798,-0.0213 -0.0929,-0.0378 -0.033,-0.0426 z m 1.29207,0.23426 c 0.18475,0.0303 0.46473,0.0944 0.62215,0.14257 0.15744,0.0481 0.006,0.0235 -0.33593,-0.055 -0.34218,-0.0784 -0.47092,-0.11808 -0.28622,-0.0876 z m 8.37184,1.24582 c 0.35042,-0.17619 0.42398,-0.20546 0.41312,-0.16435 -0.002,0.009 -0.18106,0.092 -0.39717,0.18493 l -0.39294,0.16895 z m 21.22157,4.82712 c 0.0541,-0.004 0.11318,0.0113 0.13149,0.0342 0.0181,0.0235 -0.0261,0.0271 -0.0984,0.008 -0.0798,-0.0213 -0.0928,-0.0378 -0.033,-0.0426 z m -0.46421,-0.61796 c 0.0326,-0.12026 0.058,-0.15986 0.0566,-0.088 -10e-4,0.072 -0.0281,0.17026 -0.0589,0.21874 -0.0312,0.0484 -0.0301,-0.01 0.003,-0.13069 z m -18.98077,-4.74627 c 0.0326,-0.12025 0.058,-0.15985 0.0566,-0.088 -0.001,0.0719 -0.0281,0.17026 -0.0589,0.21873 -0.0312,0.0484 -0.0301,-0.01 0.003,-0.13069 z m -0.7902,-0.35482 c 0.0248,-0.0901 0.0488,-0.11679 0.0522,-0.0594 0.004,0.0572 -0.0172,0.13092 -0.0463,0.16356 -0.0287,0.0328 -0.0315,-0.0144 -0.006,-0.10419 z m 32.13392,7.35454 c 0.003,-0.0114 0.0688,-0.042 0.14631,-0.0681 0.12767,-0.043 0.12962,-0.0406 0.0207,0.0266 -0.11443,0.0705 -0.17888,0.0865 -0.16695,0.0414 z m -39.80923,-9.47219 c -0.063,-0.10647 -0.06,-0.10785 0.0316,-0.0147 0.0963,0.0978 0.12099,0.15117 0.0641,0.13816 -0.0143,-0.003 -0.0574,-0.0589 -0.0957,-0.12341 z m 2.92763,0.55718 c 0.0541,-0.004 0.11322,0.0112 0.1315,0.0342 0.0181,0.0235 -0.0261,0.027 -0.0984,0.008 -0.0798,-0.0213 -0.0928,-0.0378 -0.033,-0.0426 z m 8.59272,1.9027 c -0.063,-0.10646 -0.06,-0.10785 0.0316,-0.0147 0.0963,0.0978 0.12101,0.15117 0.0641,0.13816 -0.0143,-0.003 -0.0575,-0.0589 -0.0957,-0.12342 z m -0.80025,-1.09727 c -0.22358,-0.29059 -0.39095,-0.52478 -0.37193,-0.52043 0.019,0.004 0.21749,0.24565 0.44107,0.53624 0.22359,0.29057 0.39095,0.52476 0.37194,0.52042 -0.019,-0.004 -0.21751,-0.24566 -0.44108,-0.53623 z m -15.31006,-3.39906 -0.1278,-0.18888 0.15503,0.17618 c 0.1449,0.16468 0.17731,0.21909 0.12309,0.20669 -0.0123,-0.003 -0.08,-0.0902 -0.15032,-0.19399 z m 31.88596,6.92504 c -0.14924,-0.19263 -0.15603,-0.24014 -0.0652,-0.45627 0.0558,-0.13268 0.15516,-0.26625 0.22078,-0.29682 0.1173,-0.0545 3.12853,-0.32367 6.44258,-0.57564 1.6462,-0.12516 3.02271,-0.18397 3.22478,-0.13777 0.11827,0.027 0.24015,0.34331 0.19626,0.50928 -0.0532,0.20107 -0.31654,0.38732 -0.61438,0.43448 -0.43215,0.0684 -2.8727,0.27554 -2.86411,0.24305 0.004,-0.0155 -0.0539,3.5e-4 -0.12874,0.0352 -0.0749,0.0349 -0.17542,0.0406 -0.2234,0.013 -0.048,-0.0277 -0.0937,-0.0256 -0.10204,0.006 -0.008,0.031 -0.0396,0.0358 -0.0699,0.0108 -0.0302,-0.025 -0.0716,-0.0246 -0.0916,-2.4e-4 -0.0341,0.0421 -0.95345,0.13502 -4.08074,0.4126 -0.69516,0.0617 -1.35703,0.0909 -1.47083,0.0649 -0.13844,-0.0317 -0.26206,-0.11841 -0.37351,-0.26233 z m -29.17202,-6.63118 c 0.003,-0.0114 0.0688,-0.042 0.1463,-0.0681 0.12769,-0.0431 0.12962,-0.0406 0.0206,0.0267 -0.11442,0.0705 -0.17888,0.0866 -0.16694,0.0414 z m -1.66923,-0.68846 c 0.0516,-0.004 0.12931,0.0135 0.17284,0.0395 0.0435,0.0261 10e-4,0.0297 -0.0937,0.008 -0.0951,-0.0217 -0.13068,-0.0431 -0.0791,-0.0474 z m 6.30453,1.14617 c -0.063,-0.10646 -0.06,-0.10785 0.0315,-0.0147 0.0963,0.0978 0.12099,0.15118 0.0641,0.13816 -0.0144,-0.003 -0.0575,-0.0589 -0.0957,-0.12341 z m -3.74126,-1.06601 c 0.003,-0.0114 0.0688,-0.042 0.14631,-0.0681 0.12765,-0.043 0.12961,-0.0406 0.0207,0.0266 -0.11442,0.0705 -0.17887,0.0866 -0.16694,0.0414 z m 3.26329,0.47781 c 0.0279,-0.10538 0.0534,-0.14525 0.057,-0.0885 0.003,0.0566 -0.0193,0.14288 -0.0507,0.1916 -0.0313,0.0487 -0.0342,0.003 -0.006,-0.10299 z m 1.13609,-0.75614 c 0.10924,-0.0548 0.21413,-0.0962 0.23313,-0.0918 0.019,0.004 -0.0548,0.0528 -0.16399,0.10762 -0.10924,0.0548 -0.21413,0.0962 -0.23314,0.0918 -0.019,-0.004 0.0548,-0.0528 0.164,-0.10764 z m -4.47951,-1.08221 c 0.10924,-0.0548 0.21412,-0.0962 0.23313,-0.0918 0.019,0.004 -0.0548,0.0528 -0.16399,0.10762 -0.10924,0.0548 -0.21413,0.0962 -0.23315,0.0918 -0.019,-0.004 0.0548,-0.0528 0.16401,-0.10763 z m -5.5992,-1.35026 c 0.0894,0.007 0.21376,0.0356 0.27629,0.0642 0.0624,0.0288 -0.0103,0.0235 -0.16266,-0.012 -0.15194,-0.0354 -0.20307,-0.0589 -0.11361,-0.0523 z m 32.79796,7.28274 c -0.15654,-0.20202 -0.17317,-0.2662 -0.0999,-0.38566 0.20126,-0.32818 0.24478,-0.34691 0.98359,-0.42304 0.4009,-0.0413 0.75137,-0.0566 0.7788,-0.034 0.0275,0.0227 0.0662,0.0213 0.0861,-0.003 0.0533,-0.0645 2.62727,-0.28464 2.69316,-0.23028 0.031,0.0255 0.0635,0.0186 0.0723,-0.0149 0.009,-0.0336 0.0433,-0.0389 0.0764,-0.0116 0.0331,0.0273 0.0679,0.0207 0.0771,-0.0142 0.009,-0.0351 0.0598,-0.0389 0.11225,-0.009 0.0525,0.0304 0.10217,0.0295 0.11023,-9.5e-4 0.008,-0.031 0.0396,-0.0358 0.0699,-0.0108 0.0303,0.0249 0.0709,0.0273 0.0903,0.005 0.0398,-0.0454 1.88055,-0.20192 2.61281,-0.22214 0.96453,-0.0266 1.1386,0.0396 1.10032,0.41896 -0.0242,0.24043 -0.39216,0.43187 -1.00174,0.5213 -0.99408,0.1458 -2.87093,0.33738 -2.91877,0.29793 -0.0275,-0.0227 -0.0661,-0.0223 -0.0857,9.9e-4 -0.0814,0.096 -4.14299,0.4544 -4.42319,0.39034 -0.0804,-0.0184 -0.23071,-0.14245 -0.33398,-0.2758 z m -21.63382,-5.21128 c -0.017,-0.0389 0.0744,-0.0412 0.22921,-0.006 0.28718,0.0657 0.2855,0.0887 -0.006,0.0778 -0.10738,-0.004 -0.20799,-0.0363 -0.22357,-0.072 z m -0.32118,-0.18536 c 0.0291,-0.0229 0.009,-0.064 -0.0461,-0.0918 -0.0767,-0.0388 -0.0732,-0.0423 0.0154,-0.0154 0.12789,0.0385 0.18111,0.19513 0.0568,0.16672 -0.0434,-0.01 -0.0552,-0.0367 -0.0261,-0.0596 z m 0.17814,0.0325 c 0.007,-0.0283 0.1432,-0.0216 0.30164,0.0146 0.34117,0.078 0.32303,0.10259 -0.0476,0.0644 -0.14827,-0.0153 -0.26157,-0.0505 -0.25408,-0.0789 z m -1.70426,-0.54516 c 0.24198,0.044 0.61531,0.12946 0.82962,0.18989 0.2143,0.0604 0.0163,0.0245 -0.43999,-0.0799 -0.45628,-0.10444 -0.63168,-0.1537 -0.38963,-0.10999 z m -1.64955,-0.89046 c 0.0198,-0.063 0.04,-0.0722 0.0505,-0.0235 0.01,0.0441 -0.005,0.0907 -0.0336,0.10359 -0.0277,0.013 -0.0356,-0.0231 -0.0173,-0.0802 z m -8.09166,-1.91398 c 0.0541,-0.004 0.11321,0.0112 0.13148,0.0342 0.0181,0.0235 -0.0261,0.027 -0.0984,0.008 -0.0798,-0.0213 -0.0928,-0.0378 -0.033,-0.0426 z m 0.59791,0.0783 c 0.0701,0.002 0.17906,0.0264 0.24199,0.0553 0.0629,0.0289 0.005,0.0277 -0.1276,-0.003 -0.13309,-0.0304 -0.18456,-0.0541 -0.11439,-0.0526 z m 0.80917,0.12858 c 0.0516,-0.004 0.12931,0.0135 0.17284,0.0395 0.0436,0.026 0.001,0.0297 -0.0937,0.008 -0.0951,-0.0217 -0.13066,-0.0431 -0.079,-0.0474 z m 6.82932,1.15973 c 0.0198,-0.063 0.04,-0.0722 0.0505,-0.0235 0.01,0.0441 -0.005,0.0907 -0.0336,0.10359 -0.0277,0.013 -0.0356,-0.0231 -0.0173,-0.0802 z m -5.33461,-1.40026 c 0.071,0.001 0.16402,0.0238 0.20689,0.0494 0.0429,0.0257 -0.0148,0.0246 -0.12896,-0.003 -0.11382,-0.0271 -0.14885,-0.0481 -0.0779,-0.0467 z m 0.22363,-0.9403 c 0.28857,-0.18228 0.7573,-0.33521 1.15302,-0.37619 0.3687,-0.0382 0.31368,-0.004 -0.16236,0.0995 -0.25426,0.0555 -0.64603,0.18146 -0.8706,0.27985 l -0.4083,0.17893 z m 4.70409,0.78658 -0.12779,-0.18887 0.15503,0.17618 c 0.0853,0.0968 0.15291,0.1842 0.15032,0.19402 -0.0113,0.0429 -0.058,-0.005 -0.17756,-0.18133 z m -3.2001,-1.18604 c 0.01,-0.037 0.39623,-0.0582 0.4233,-0.0232 0.0123,0.016 -0.0793,0.0337 -0.2038,0.0391 -0.1245,0.006 -0.22324,-0.002 -0.2195,-0.0159 z m 0.93997,-0.0257 c 0.12593,0.016 0.34376,0.0656 0.48408,0.11021 0.14033,0.0447 0.0373,0.0316 -0.22895,-0.0291 -0.26625,-0.0606 -0.38095,-0.0975 -0.25511,-0.0812 z"
         id="path14"
         sodipodi:nodetypes="csscccscssccsssssccccssccccsscsscccccccccscccccccccccccccccccccccccccccccccccccccccccccccccccsccsccsscsscccccccccscccccccccccccccccccccccccscccscccccsccscccssccccccccccccccccscsccsccccscccssccccscssccccccccccccccccccsccccsccscccccscscsscccccccccscccsscscsccccccscccccsccscccscccscccssssssscccsssscssssscccccsccccccccccccccccccssccscsccsccsssccccscscsccsccscsscsccscccccccsccccscccscccccscccscsccsccccccccccccccccccccccccccccccccccccccccscccscccsscscccsscsssscsccsccssccsccccccccscccsssccccccccccccccsccccscccccccssccccccccccccccccccccccccccccccccccccccccccccccccsssscccccccssccccscccssccscscscsccsccccccccccccccccscccscscccssscsscccscssccscsssccccccscccscccsccccccccccccccccccccccccccscccscccccccssccscccscscccscccscccsccscscscccsccscsccccscccscccssccccccccccscccscccsssccssccccscscscssssscccsccccccccscccccccccsccscscscsccsccccccsccscccsc"
         transform="matrix(1.0661582,0,0,1.1465711,-84.872743,-82.972246)" /><path
         style="fill:#850505;fill-opacity:1;stroke-width:1.00954"
         d="m 144.75042,215.85963 c -0.3974,-0.11372 -1.23676,-0.47109 -1.43134,-0.60948 -0.16142,-0.11476 -0.27019,-0.30342 -0.24026,-0.41658 0.0218,-0.0824 0.0797,-0.0769 2.64756,0.24663 0.6439,0.0811 1.39831,0.16029 1.67646,0.17589 0.27815,0.0156 0.92621,0.0602 1.44013,0.0992 0.51391,0.039 1.28036,0.0726 1.70319,0.0748 0.42285,0.002 1.11158,0.0178 1.53053,0.0346 0.69777,0.0281 1.46009,0.0336 3.14661,0.023 1.0211,-0.006 6.55334,-0.22906 8.96695,-0.36082 0.47052,-0.0257 1.27282,-0.0653 1.78289,-0.0879 0.51004,-0.0227 1.93026,-0.0907 3.15599,-0.1512 5.19156,-0.25617 10.04946,-0.43378 12.36372,-0.45204 0.56572,-0.004 1.42719,-0.0183 1.91439,-0.0307 0.84727,-0.0216 3.21361,0.0642 4.97458,0.18047 1.18516,0.0782 3.508,0.26189 3.8422,0.30382 0.15611,0.0196 0.68414,0.0815 1.1734,0.13745 1.02132,0.11694 3.68418,0.70086 3.94802,0.86574 0.14416,0.0901 0.12981,0.0942 -0.19832,0.0568 -0.19456,-0.0221 -0.4639,-0.0381 -0.59854,-0.0354 -0.13463,0.003 -0.75421,-0.0249 -1.37683,-0.0613 -4.83534,-0.28226 -12.09046,-0.1208 -24.75713,0.55097 -0.98157,0.0521 -2.10183,0.10875 -2.48948,0.12596 -0.81025,0.036 -2.64129,0.13415 -4.31359,0.2312 -3.34684,0.19423 -8.06446,0.27436 -10.63906,0.1807 -2.46751,-0.0898 -3.62783,-0.20485 -5.61154,-0.55661 -0.67408,-0.11952 -1.26727,-0.21571 -1.31815,-0.21386 -0.051,0.002 -0.0859,-0.0217 -0.0777,-0.0528 0.008,-0.031 -0.0221,-0.0478 -0.0672,-0.0373 -0.0917,0.0212 -0.72996,-0.10203 -1.14749,-0.22138 z m 0.52126,-1.97108 c -0.82075,-0.2685 -1.89735,-0.85496 -2.47925,-1.35043 -1.55106,-1.32071 -2.26635,-3.30035 -1.81255,-5.01644 0.10747,-0.40639 0.41833,-1.04426 0.6326,-1.29804 0.0826,-0.0978 1.12727,-1.26492 2.47495,-1.70463 1.28535,-0.41944 3.78719,-0.40019 3.87497,-0.28692 0.0635,-0.0394 -0.033,0.22895 -0.0965,0.32033 -0.0998,0.14263 -0.31458,0.51647 -0.51157,0.89023 -0.0401,0.0759 -0.15219,0.10379 -0.40135,0.0998 -0.32459,-0.005 -1.0605,0.0969 -1.4771,0.26203 -0.87061,0.3451 -1.05106,0.52387 -1.82101,1.5768 -0.2369,0.32397 -0.29267,0.76837 -0.30012,1.32461 -0.007,0.54233 0.0667,0.80512 0.39588,1.40459 0.8436,1.53641 2.9948,2.42148 4.95578,2.03894 1.38523,-0.27024 2.32808,-1.00707 2.7292,-2.1329 0.39165,-1.08463 0.0253,-2.20752 -0.76826,-3.04654 l -0.17301,-0.14558 0.24597,-0.30566 c 0.13528,-0.1681 0.32314,-0.4382 0.41748,-0.60022 0.0943,-0.16202 0.19298,-0.28967 0.21922,-0.28367 0.15971,0.0365 1.06306,1.04575 1.55756,1.56494 0.20594,0.21622 0.93077,1.88108 0.67133,3.2307 -0.4388,1.78122 -1.76494,2.78573 -2.88734,3.3322 -1.44023,0.70114 -3.54141,0.74973 -5.44773,0.12599 z m -0.13876,-4.7897 c -0.0978,-0.31402 -0.0957,-0.42033 0.0164,-0.82452 0.1019,-0.36585 0.17709,-0.51194 0.35775,-0.6908 0.21243,-0.21032 0.90353,-0.5882 1.02497,-0.56043 0.06,0.0137 -0.14114,0.45276 -0.42878,0.93597 -0.41217,0.69242 -0.35975,1.00257 0.23714,1.40132 1.59306,1.06423 2.57173,-0.38481 3.16039,-1.44464 l 0.10803,0.20512 c 0.0594,0.11287 0.15149,0.36193 0.20458,0.55354 0.0825,0.29764 0.0772,0.40465 -0.0362,0.73479 -0.15834,0.46092 -0.40296,0.72266 -0.95905,1.02619 -1.61633,0.8822 -3.28602,-0.0553 -3.68523,-1.33654 z m 17.03465,0.52701 c 0.0403,-0.0147 0.1031,-0.046 0.13949,-0.0696 0.0377,-0.0245 0.0556,-0.002 0.0418,0.0531 -0.0135,0.0533 -0.0754,0.0843 -0.1395,0.0696 -0.0634,-0.0145 -0.0821,-0.0384 -0.0418,-0.0531 z m 15.43368,3.30662 c -0.54879,-0.27294 -1.26319,-0.74049 -1.71879,-1.12488 -0.33332,-0.28124 -0.84758,-0.81506 -0.83414,-0.86589 0.006,-0.0232 0.13485,-0.0421 0.28606,-0.042 0.15119,7e-5 0.89685,-0.0437 1.65703,-0.0972 0.76016,-0.0535 1.43291,-0.0859 1.49497,-0.0719 0.0621,0.014 0.29546,0.12955 0.51868,0.25669 0.56259,0.32055 1.2392,0.52226 1.79204,0.53426 1.60546,0.0348 2.87943,-0.57879 3.53684,-1.70353 0.30438,-0.52076 0.41832,-1.52604 0.2592,-2.01163 -0.0468,-0.0882 -0.40147,-0.92481 -0.83962,-1.55573 -0.26472,-0.19469 -0.4429,-0.54435 -1.55714,-0.92055 -0.74557,-0.25174 -1.45465,-0.30259 -2.24225,-0.26562 -0.79362,0.0373 -2.90692,0.64213 -3.09977,1.67055 -0.008,0.31429 -0.20042,0.37782 -1.29886,0.42941 -0.35885,0.0168 -0.78157,0.051 -0.93937,0.0758 -0.32392,0.051 -0.35823,0.0132 -0.0852,-0.0937 0.17805,-0.0697 0.17873,-0.0714 0.0203,-0.0494 -0.28758,0.0401 -0.29009,-0.0894 -0.0135,-0.6952 0.31956,-0.69989 0.91496,-1.48723 1.47839,-1.95499 0.53021,-0.44019 1.61971,-0.96616 2.43725,-1.1766 1.48296,-0.38175 3.21393,-0.43108 4.85706,0.1961 0.74396,0.20671 1.43962,0.91421 1.75229,1.12011 0.51204,0.33773 1.38376,1.62945 1.52472,1.98813 -0.0339,0.0402 0.002,0.0385 0.0248,0.0771 0.59028,0.9813 0.95006,6.96332 -5.88576,6.9378 -0.67817,-0.003 -0.80739,-0.0179 -1.70581,-0.20356 -0.77072,-0.15923 -0.9312,-0.21085 -1.41976,-0.45346 z m -23.94765,-5.9262 c 0.19604,0.0914 -1.62479,-0.7576 0,0 z m 5.61167,1.20156 c -0.063,-0.10647 -0.06,-0.10786 0.0316,-0.0147 0.0557,0.0565 0.0987,0.11206 0.0957,0.12342 -0.0119,0.0451 -0.0611,0.003 -0.12726,-0.1087 z m 4.58427,0.72149 c 0.003,-0.0114 0.0688,-0.042 0.14631,-0.0681 0.12765,-0.043 0.12961,-0.0406 0.0206,0.0266 -0.11443,0.0705 -0.17888,0.0865 -0.16695,0.0414 z m 0.68338,-0.3662 c 0.003,-0.0114 0.0688,-0.0421 0.14631,-0.0681 0.12768,-0.0431 0.12959,-0.0405 0.0207,0.0267 -0.11443,0.0705 -0.17887,0.0866 -0.16694,0.0414 z M 148.0969,203.5683 c 0.0541,-0.004 0.11322,0.0112 0.13149,0.0342 0.0181,0.0235 -0.0261,0.0271 -0.0984,0.008 -0.0798,-0.0213 -0.0928,-0.0378 -0.033,-0.0426 z m 11.24935,1.59591 c 0.0119,-0.0452 0.0518,-0.0753 0.0887,-0.0668 0.0369,0.008 0.0393,0.0482 0.005,0.0884 -0.0338,0.0402 -0.0737,0.0702 -0.0887,0.0667 -0.0148,-0.003 -0.0174,-0.0432 -0.005,-0.0883 z m 0.8603,-0.20344 c 0.003,-0.0119 0.0579,-0.0252 0.1216,-0.0296 0.0665,-0.005 0.0919,0.0106 0.0594,0.0363 -0.0543,0.0428 -0.19273,0.0376 -0.18099,-0.007 z m 0.31128,-0.045 c 0.0703,-0.0306 0.5978,-0.0656 0.59082,-0.0392 -0.004,0.0151 -0.12456,0.0383 -0.26798,0.0519 -0.25258,0.0237 -0.39368,0.0182 -0.32285,-0.0126 z m 30.44821,5.69131 c -0.22604,-0.20003 -0.24128,-0.41335 -0.0452,-0.63257 0.13581,-0.15181 0.39271,-0.18528 2.61969,-0.34129 3.26565,-0.22875 6.10406,-0.35877 6.23077,-0.2854 0.13097,0.0758 0.0511,0.36186 -0.1406,0.50441 -0.25423,0.18877 -0.97358,0.36183 -1.85405,0.44606 -0.46222,0.0442 -1.0396,0.11069 -1.28306,0.1477 -0.81336,0.12368 -4.91787,0.433 -5.12305,0.38608 -0.11134,-0.0255 -0.29325,-0.12678 -0.40432,-0.22494 z m -43.2787,-10.69186 c 0.18168,1.53935 -0.46429,-1.73187 -0.52597,-2.20321 -0.0938,-0.91735 -0.005,-1.13983 0.43211,-1.08167 0.20382,0.0271 0.20523,0.0323 0.7706,2.82272 0.23072,1.13876 0.26208,1.45366 0.13755,1.38157 -0.0515,-0.0299 -0.10018,-0.0301 -0.1078,-0.001 -0.0834,0.30356 -0.64976,-0.90545 -0.70649,-0.91841 z m 34.84526,8.61511 c 0.003,-0.39255 -0.32126,6.4e-4 -0.16355,-0.50537 0.0458,-0.14603 0.10311,-0.24894 0.12799,-0.22854 0.0249,0.0204 0.0506,0.0167 0.0573,-0.009 -0.35382,-0.78857 -2.69606,-0.50987 -3.63526,-0.48704 -0.15258,0.14755 -0.15775,0.14812 -0.12383,0.0138 0.36405,-1.43753 4.42443,-0.0876 3.83698,0.5834 -0.0377,0.0431 -0.0951,0.10834 -0.12748,0.1452 -0.0378,0.0429 -0.0214,0.0654 0.0456,0.0624 0.0575,-0.002 0.10598,-0.0499 0.10793,-0.10517 0.002,-0.0575 0.0301,-0.0787 0.0654,-0.0495 0.0828,0.0684 0.10966,0.45053 0.0458,0.65278 -0.0343,0.11028 -0.0479,0.0625 -0.0409,-0.14855 0.006,-0.18775 -0.0181,-0.28873 -0.0611,-0.2548 -0.0393,0.031 -0.0696,0.15117 -0.0676,0.26723 0.002,0.11611 -0.0124,0.21876 -0.0325,0.22814 -0.0202,0.009 0.026,-0.16351 -0.0345,-0.1659 -3.4e-4,-1e-5 -2.8e-4,9.2e-4 -2.8e-4,9.2e-4 z m -14.0318,-5.10237 c -0.19519,-0.31443 -0.4257,-0.65917 -0.51228,-0.76606 -0.18983,-0.23443 -0.18452,-0.29492 0.0218,-0.24785 0.58069,0.1325 2.99536,0.091 4.06549,-0.0699 0.94941,-0.14271 1.27654,-0.23283 1.9544,-0.53837 0.81749,-0.3685 1.25697,-0.68081 1.6046,-1.14032 l 0.30645,-0.40507 0.43472,-0.002 c 0.23911,-9.4e-4 3.4247,-0.72119 4.37134,-0.77787 1.83444,-0.10979 0.68842,0.56109 1.32667,0.66609 0.21687,0.0356 0.31355,0.0582 0.21487,0.0502 -1.55358,-0.0257 -2.25792,0.54603 -3.96368,1.33009 -0.11531,0.0531 -0.20205,0.0529 -0.41391,0.30957 -0.17665,0.21404 -0.31147,0.4029 -0.2696,0.44621 0.10259,0.10613 0.26602,0.16016 0.37947,0.17684 0.0949,-0.004 -0.31638,0.0734 -0.61505,0.1538 -4.0764,0.95649 -2.76912,0.78625 -6.79394,1.22765 -1.05044,0.10698 -1.3739,0.1182 -1.5501,0.0538 -0.19776,-0.0723 -0.21504,-0.0693 -0.15441,0.0266 0.0375,0.0594 0.0411,0.10166 0.008,0.0937 -0.033,-0.008 -0.21988,-0.27153 -0.41508,-0.58596 z m -19.77854,-5.86883 c -0.0163,-0.18601 -0.0151,-0.34498 0.003,-0.35323 0.0178,-0.008 0.0468,0.13669 0.0643,0.32209 0.0176,0.18543 0.0164,0.34438 -0.003,0.35324 -0.0191,0.009 -0.0479,-0.13609 -0.0642,-0.32209 z m 7.83404,-2.34971 c 0.0283,0.006 0.0546,0.0793 0.0586,0.16205 0.004,0.0827 0.11935,0.29484 0.25621,0.47149 l 0.24883,0.32116 -0.24784,0.12544 c -0.13629,0.0689 -0.33862,0.1899 -0.44959,0.26866 -0.11094,0.0788 -0.22646,0.12285 -0.25666,0.0979 -0.0302,-0.0249 -0.0468,-0.005 -0.0369,0.0453 0.01,0.0498 -0.0538,0.11799 -0.1417,0.15151 -0.0945,0.036 -0.15698,0.1062 -0.15297,0.17179 0.004,0.061 -0.027,0.10319 -0.0682,0.0937 -0.0426,-0.01 -0.0664,0.0287 -0.055,0.089 0.017,0.0899 0.006,0.0917 -0.0695,0.0122 -0.12435,-0.13059 -0.32578,-0.10281 -0.36636,0.0506 -0.0432,0.16349 -0.17097,0.19292 -0.28938,0.0667 -0.0727,-0.0776 -0.10271,-0.0855 -0.13972,-0.0371 -0.026,0.034 -0.13794,0.0411 -0.24885,0.0157 -0.15139,-0.0346 -0.19487,-0.0717 -0.17438,-0.1492 0.0177,-0.0671 -0.0319,-0.12653 -0.14206,-0.17012 -0.15839,-0.0628 -0.16949,-0.0554 -0.1722,0.11349 -0.002,0.12659 1.17679,-1.68966 2.44767,-1.90027 z m 1.05309,0.85662 c -0.84948,-0.59982 -0.72375,-1.78567 0.23363,-2.20349 0.3972,-0.17334 0.62164,-0.14932 2.53084,0.27084 l 1.78265,0.39236 1.46951,-0.21399 c 2.39146,-0.34823 3.44399,-0.60392 3.78413,-0.91926 0.12958,-0.12009 0.14073,-0.15914 0.0893,-0.31048 -0.12759,-0.37377 -0.55444,-0.72469 -1.54301,-1.26855 -1.17717,-0.64762 -1.38648,-0.85667 -1.27599,-1.27447 0.11934,-0.45131 0.37684,-0.722 0.88976,-0.93529 0.46651,-0.19399 0.94493,-0.29079 1.21909,-0.24666 0.0773,0.0125 0.0214,-0.0255 -0.12436,-0.0842 -0.1854,-0.0748 -0.0798,-0.0582 0.3519,0.0556 0.42198,0.111 0.79002,0.25138 1.1647,0.44385 0.59618,0.3063 1.96868,1.2348 2.41403,1.6331 1.03467,0.92536 2.3704,2.50999 3.05077,3.61927 1.17978,1.92349 1.59826,3.29664 1.31181,4.3043 -0.0776,0.27385 -0.12444,0.37204 -0.12472,0.2629 -3.2e-4,-0.13858 -0.0757,-0.22986 -0.36829,-0.44598 -0.61962,-0.45774 -1.33974,-0.84854 -2.30746,-1.25223 -0.8548,-0.3566 -1.00433,-0.40203 -1.96869,-0.59824 -0.84053,-0.17097 -1.13614,-0.20838 -1.51898,-0.19208 l -0.47535,0.0203 -0.35123,-0.22158 c -0.1932,-0.12182 -0.40587,-0.25117 -0.47265,-0.28733 -0.14768,-0.08 -0.20865,-0.057 0.68414,-0.26002 1.72848,-0.39337 2.42421,-0.98961 2.42534,-2.0785 5.9e-4,-0.57371 -0.1609,-1.09592 -0.50083,-1.61952 -0.30034,-0.46264 -0.60332,-0.74375 -0.64238,-0.59604 -0.0117,0.0441 0.0606,0.32907 0.16052,0.63323 0.21943,0.66773 0.25348,1.12835 0.12059,1.6309 -0.12835,0.48538 -0.27776,0.62974 -0.96676,0.93413 -0.87808,0.38793 -2.48371,0.60002 -4.41004,0.58256 -0.67755,-0.006 -3.57716,-0.15692 -3.74182,-0.19457 -0.009,-0.002 -0.0741,0.0722 -0.14413,0.16535 -0.1737,0.23067 -0.75655,0.53603 -1.14043,0.59748 -0.20145,0.0322 -0.4937,0.0188 -0.80606,-0.0372 -0.42135,-0.0754 -0.53325,-0.11884 -0.79927,-0.30615 z m 32.58493,6.49951 c -0.24295,-0.25453 -0.25203,-0.63675 -0.0188,-0.7916 0.27041,-0.17957 10.8761,-0.95467 11.61749,-0.84905 0.32438,0.0462 0.36901,0.067 0.4139,0.19298 0.11011,0.30891 -0.24405,0.61721 -0.8083,0.70351 -0.55685,0.0852 -4.133,0.42089 -8.08234,0.75872 -2.80298,0.23975 -2.87951,0.23939 -3.12194,-0.0146 z m 12.11542,1.53786 c 0.0199,-0.0753 0.0438,-0.10246 0.053,-0.0605 0.009,0.0421 -0.007,0.10362 -0.0362,0.13685 -0.0292,0.0333 -0.0367,-10e-4 -0.0168,-0.0764 z m -12.77515,-4.20481 c -0.13705,-0.13297 -0.15005,-0.19503 -0.0893,-0.42493 0.0498,-0.18838 0.11733,-0.29064 0.22509,-0.34081 0.40211,-0.18722 11.3093,-0.92664 12.05613,-0.94869 2.07631,-0.0613 0.90959,0.58059 0.41017,0.87209 -0.29347,0.17127 -0.63094,0.11424 -3.24425,0.31548 -1.11728,0.086 -1.7833,0.17737 -5.10913,0.47161 -4.08213,0.36115 -3.9357,0.35925 -4.24875,0.0553 z m -27.41183,-7.45691 c -0.42025,-0.4665 -0.82721,-0.89028 -0.90434,-0.94172 -0.0771,-0.0514 -0.13622,-0.10869 -0.13129,-0.12734 0.005,-0.0185 0.28507,-0.32258 0.62258,-0.67554 0.3375,-0.35299 0.7548,-0.81849 0.92732,-1.03447 0.40086,-0.50183 0.81199,-0.99119 0.96615,-1.15001 l 0.1206,-0.12426 1.10933,0.28289 c 1.37586,0.35084 1.49801,0.40853 0.98577,0.46548 -0.68915,0.0766 -1.16871,0.38542 -1.4531,0.93569 -0.34358,0.66483 -0.2267,1.30573 0.39564,2.16923 0.3812,0.52894 0.4184,0.64371 0.19182,0.59191 -0.076,-0.0174 -0.1441,-0.01 -0.15124,0.0174 -0.007,0.027 -0.19735,0.0913 -0.42271,0.14289 -0.22535,0.0516 -0.61614,0.14785 -0.86842,0.21386 -0.25228,0.066 -0.49589,0.11148 -0.54135,0.10108 -0.0455,-0.0104 -0.42652,-0.40059 -0.84678,-0.8671 z m -4.35236,-1.83488 c -0.2117,-0.13017 -0.49581,-0.48767 -0.67296,-0.84691 -0.0798,-0.16192 -0.28991,-0.48666 -0.46679,-0.72163 -0.30218,-0.40138 -0.32331,-0.45928 -0.34976,-0.95791 -0.0155,-0.29188 -0.0425,-0.5634 -0.06,-0.60336 -0.0199,-0.0454 -0.27194,-0.12758 -0.67224,-0.2191 -0.41165,-0.0941 -0.75057,-0.2056 -0.94879,-0.31199 -0.61939,-0.33244 -1.00654,-1.07539 -0.71661,-1.37517 0.13121,-0.13559 0.24024,-0.1212 0.6548,0.0864 0.25106,0.12568 0.44284,0.16973 1.27881,0.29336 1.38941,0.20549 1.46513,0.21008 2.34077,0.14197 l 0.78601,-0.0611 -0.86045,-0.21188 c -0.47327,-0.11645 -0.89595,-0.23194 -0.93937,-0.25628 -0.12457,-0.0698 0.61195,-0.60345 1.12969,-0.81856 0.25347,-0.10532 0.74186,-0.22956 1.11116,-0.28268 0.65529,-0.0943 0.66308,-0.0938 1.4188,0.0815 0.70275,0.16275 0.79136,0.19711 1.17811,0.45317 0.52493,0.34751 0.92871,0.82913 1.06587,1.27141 0.1354,0.43661 0.0848,1.08626 -0.11661,1.49615 -0.1988,0.40483 -1.63794,1.97756 -2.01021,2.19696 -0.1597,0.0941 -0.36023,0.23617 -0.44562,0.31568 -0.49902,0.46453 -2.1567,0.66676 -2.70463,0.32996 z m 1.04927,-0.71615 c 0.62381,-0.0586 1.25537,-0.40937 1.62523,-0.90264 0.1026,-0.13679 0.31919,-0.31927 0.48138,-0.40553 0.61837,-0.32884 0.90911,-0.84146 0.67708,-1.19386 -0.15356,-0.23324 -0.31999,-0.24414 -0.90941,-0.0596 -0.57684,0.18066 -0.67475,0.15062 -0.76428,-0.23448 -0.0659,-0.28319 -0.0889,-0.3113 -0.26029,-0.31736 -0.1034,-0.004 -0.55587,0.0743 -1.00545,0.17334 -0.44959,0.099 -0.94856,0.19648 -1.10882,0.21665 -0.16024,0.0201 -0.31238,0.0616 -0.33808,0.0921 -0.0663,0.0787 -0.0571,0.86324 0.0125,1.06721 0.032,0.0939 0.12576,0.25145 0.20824,0.35013 0.0825,0.0987 0.18434,0.28241 0.22637,0.4083 0.0421,0.1259 0.15879,0.34198 0.25946,0.48019 0.20749,0.28487 0.43778,0.36852 0.89604,0.32546 z m 23.62552,-1.09803 c 0.15686,-0.0759 0.30076,-0.13442 0.31977,-0.13008 0.019,0.004 -0.0938,0.07 -0.25063,0.14588 -0.15687,0.0759 -0.30077,0.1344 -0.31977,0.13006 -0.019,-0.004 0.0938,-0.0699 0.25063,-0.14586 z"
         id="path13"
         sodipodi:nodetypes="csssscssssscssssccssssssssssccccssssccsssscssssccssscscccsssssssssscsssscssssssssssccsssscssscscsssccsssssssssccsccsscssccsccssssssssssscccssccccscsssscssssscssccsscccccssssacssscssssccsssscssssssscsscccsssssccsssccsccsssssscsssccssssccccsssssssscscccsssscssssscccccsssccsssssscssssssssccssscssccscscccssccscscssscsssssscssscssccscsccscscccsccccscc"
         transform="matrix(1.0661582,0,0,1.1465711,-84.872743,-82.972246)" /><path
         style="fill:#850505;fill-opacity:1;stroke-width:0.406586"
         d="m 334.97146,522.94966 c -0.53987,-0.55906 -1.72382,-1.89151 -2.63099,-2.96101 -0.90718,-1.0695 -2.15551,-2.46574 -2.77409,-3.10276 l -1.12468,-1.15822 2.5707,-2.98156 c 1.41388,-1.63986 3.55633,-4.26087 4.76099,-5.82446 1.20466,-1.5636 2.41784,-3.10948 2.69594,-3.43529 l 0.50566,-0.59239 3.35592,0.9195 c 6.45641,1.76901 6.80145,1.92976 4.711,2.19479 -3.20307,0.40609 -5.6149,2.77776 -6.22934,6.12564 -0.39777,2.16727 0.20677,4.14242 2.28866,7.47752 0.69287,1.10995 1.25977,2.11559 1.25977,2.23475 0,0.13475 -0.14388,0.17902 -0.38064,0.11711 -0.20935,-0.0548 -0.59275,0.0101 -0.852,0.14421 -0.55759,0.28834 -6.32706,1.85863 -6.82887,1.85863 -0.19055,0 -0.78816,-0.45741 -1.32803,-1.01646 z"
         id="path115"
         sodipodi:nodetypes="ssscssscsssssssss"
         transform="scale(0.26458333)" /><path
         style="fill:#850505;fill-opacity:1;stroke-width:0.406586"
         d="m 315.93807,512.67175 c -0.51378,-0.17747 -1.13915,-0.51296 -1.38971,-0.74553 -0.61841,-0.57402 -1.65972,-2.12481 -2.36118,-3.51645 -0.31855,-0.63197 -0.95443,-1.70589 -1.41306,-2.38648 -1.31001,-1.94401 -1.54226,-2.51077 -1.66606,-4.06587 -0.26612,-3.34264 -0.23078,-3.21283 -0.95295,-3.49953 -0.35863,-0.14237 -1.44754,-0.47984 -2.41982,-0.74993 -2.54019,-0.70565 -3.82691,-1.32838 -4.84179,-2.34326 -1.41248,-1.41248 -2.20657,-3.35625 -1.74033,-4.25995 0.47945,-0.9293 0.78262,-0.95055 2.49805,-0.17505 1.3366,0.60424 2.11973,0.80569 5.21492,1.34144 3.24953,0.56247 4.00418,0.63259 7.00088,0.65055 3.33729,0.02 5.39169,-0.1382 5.39169,-0.41517 0,-0.0796 -0.65628,-0.31889 -1.45841,-0.53179 -2.24153,-0.59496 -5.16204,-1.44476 -5.24622,-1.52653 -0.29079,-0.28247 2.82802,-2.61034 4.47042,-3.33668 1.37505,-0.60811 4.43468,-1.32654 6.1233,-1.4378 1.33184,-0.0878 1.77992,-0.0282 3.94286,0.52401 2.842,0.72559 3.48676,1.01157 5.16114,2.28925 1.49576,1.14138 2.74648,2.64365 3.48598,4.18712 0.46304,0.96644 0.56203,1.41075 0.63033,2.82921 0.17878,3.71277 -0.66839,5.31058 -5.95271,11.22709 -2.10043,2.3517 -5.27505,4.86162 -6.84871,5.41472 -2.53409,0.89066 -5.90171,1.12314 -7.62862,0.52663 z m 5.37883,-3.81018 c 1.43514,-0.52093 3.21525,-1.81104 4.22779,-3.06403 0.78469,-0.97104 2.09881,-2.16074 2.38671,-2.16074 0.30349,0 2.153,-1.86479 2.47447,-2.49491 0.2075,-0.40675 0.34333,-1.03082 0.34333,-1.57751 0,-0.76403 -0.0803,-0.98478 -0.51674,-1.42125 -0.65951,-0.65952 -1.34205,-0.67207 -3.4131,-0.0628 -2.35936,0.69413 -2.61877,0.58625 -3.17799,-1.32164 -0.39781,-1.35724 -0.0245,-1.36834 -7.55407,0.22462 -3.25964,0.6896 -3.33811,0.75204 -3.49094,2.77744 -0.12605,1.67056 0.1627,3.06348 0.86305,4.1633 0.30181,0.47397 0.76999,1.39622 1.04039,2.04944 0.58435,1.41167 1.43882,2.70313 1.98135,2.99462 1.09957,0.5908 3.03183,0.54821 4.83575,-0.10658 z"
         id="path116"
         sodipodi:nodetypes="sssssssssssssssssssssssssssssssssssssss"
         transform="scale(0.26458333)" /><path
         style="fill:#850505;fill-opacity:1;stroke-width:0.406586"
         d="m 317.45393,512.28456 c -1.95436,-0.28652 -2.86052,-1.03441 -4.76656,-3.93404 -1.98792,-3.02418 -3.31748,-6.23743 -3.32554,-8.03706 -0.003,-0.74672 -0.39044,-1.49237 -0.97286,-1.87398 -0.25189,-0.16505 -1.53438,-0.72903 -2.84998,-1.2533 -2.6874,-1.07093 -3.81846,-1.73012 -4.76361,-2.7763 -1.03391,-1.14441 -1.86787,-3.32463 -1.27146,-3.32398 0.38368,4.2e-4 3.01193,0.4882 4.11318,0.76338 2.58067,0.64484 7.9755,1.18125 11.75252,1.16856 2.62496,-0.009 3.73473,-0.14327 3.84213,-0.46548 0.0388,-0.11627 -0.32465,-0.41162 -0.80758,-0.65634 -0.72969,-0.36976 -1.66892,-0.68468 -5.22359,-1.75147 -0.27699,-0.0831 3.68957,-2.39944 4.86936,-2.84351 7.76351,-2.92218 16.55295,0.86889 17.68301,7.62704 0.26548,1.5877 0.0341,3.45755 -0.59908,4.84052 -0.62688,1.36928 -2.89797,4.11116 -5.82685,7.03471 -4.09318,4.08575 -5.64049,5.08029 -8.52903,5.48205 -1.52525,0.21214 -1.87215,0.21206 -3.32406,-8e-4 z m 2.90093,-3.01289 c 1.30682,-0.27728 2.28674,-0.80949 4.12373,-2.23965 3.00474,-2.3393 5.7303,-5.00788 6.36153,-6.22854 0.5911,-1.14306 0.23757,-2.526 -0.75271,-2.94445 -0.57352,-0.24234 -0.90502,-0.25309 -2.43181,-0.0788 -0.97227,0.11097 -1.98652,0.20131 -2.2539,0.20075 -0.60388,-10e-4 -1.19324,-0.56588 -1.19324,-1.14316 0,-0.6023 -0.61982,-1.12119 -1.49627,-1.25262 -1.37122,-0.20562 -7.73741,1.09088 -9.01839,1.83664 -0.69564,0.40498 -0.96359,0.99177 -1.09488,2.3977 -0.12878,1.37912 0.14049,2.88759 0.83919,4.70118 0.66618,1.72918 1.99411,3.9829 2.56859,4.35931 0.85587,0.56079 2.74788,0.73122 4.34816,0.39167 z"
         id="path117"
         sodipodi:nodetypes="sscssssscsssssssssssssscssssssss"
         transform="scale(0.26458333)" /><path
         style="fill:#899305;fill-opacity:1;stroke-width:0.168087"
         d="m 133.15736,141.97775 c -0.16681,-0.17905 -0.18917,-0.40278 -0.067,-0.67081 0.0726,-0.15938 0.17473,-0.19737 0.89525,-0.33303 1.72186,-0.3242 4.5533,-0.55631 10.75236,-0.88147 8.34797,-0.43786 31.84069,-1.60882 32.27751,-1.60882 0.19304,0 0.20722,0.02 0.20722,0.29232 0,0.27015 -0.0152,0.29234 -0.20097,0.29247 -0.11054,8e-5 -1.51644,0.098 -3.12424,0.21761 -16.06192,1.19486 -39.43974,2.85167 -40.23752,2.85167 -0.2696,0 -0.38894,-0.038 -0.50257,-0.15994 z"
         id="path26"
         sodipodi:nodetypes="ssssssssss" /><path
         style="fill:#899305;fill-opacity:1;stroke-width:0.168087"
         d="m 129.27983,142.25593 c -0.56881,-0.11707 -0.82788,-0.40781 -0.70588,-0.79218 0.11651,-0.36711 1.02932,-0.66761 2.05191,-0.6755 0.77996,-0.006 1.22597,0.0982 1.47176,0.34403 0.20388,0.20388 0.1816,0.40164 -0.0753,0.66803 -0.30951,0.32101 -2.01773,0.60479 -2.74254,0.45562 z"
         id="path27"
         sodipodi:nodetypes="ssssss" /><path
         style="fill:#899305;fill-opacity:1;stroke-width:0.118856"
         d="m 177.17343,138.77656 c -0.0119,-0.1532 -0.0191,-0.28345 -0.0161,-0.28943 0.0133,-0.0267 8.47359,-0.39894 10.28449,-0.45249 0.54002,-0.016 1.28416,-0.0423 1.65365,-0.0586 0.88164,-0.0388 0.80832,0.0491 -0.12919,0.15485 -1.12938,0.12742 -8.80595,0.73578 -11.22123,0.88927 l -0.55005,0.0349 z"
         id="path28"
         sodipodi:nodetypes="sssssscs" /><path
         style="fill:#850505;fill-opacity:1;stroke-width:1.79688"
         d="m 381.24847,548.27916 c -5.03657,-4.07836 -19.90619,-9.35749 -23.00629,-8.16787 -0.48717,0.18694 -1.54023,-0.13867 -2.34014,-0.72357 -1.13883,-0.83274 -1.21648,-1.14001 -0.3579,-1.41625 0.60307,-0.19403 2.38398,-0.74813 3.95759,-1.23133 1.57361,-0.4832 3.77088,-1.78831 4.88282,-2.90025 2.65251,-2.65251 2.75945,-7.88985 0.25104,-12.29478 -1.85029,-3.24922 -4.43289,-5.02518 -3.36761,-2.31577 0.3187,0.81058 0.77087,3.27491 1.00482,5.47628 0.35649,3.35452 0.16333,4.26451 -1.19317,5.62101 -3.12562,3.12561 -8.84403,4.13697 -22.40775,3.96303 -11.6136,-0.14893 -12.6939,-0.0402 -15.23438,1.53289 -6.27316,3.88447 -14.33646,-2.73608 -9.375,-7.69755 1.95907,-1.95907 3.22824,-1.95139 11.84534,0.0717 6.69338,1.57142 7.23703,1.58657 14.15921,0.39464 16.6832,-2.87269 18.15615,-4.81683 8.41286,-11.10411 -2.58601,-1.66873 -4.89191,-3.52305 -5.12422,-4.12071 -0.73312,-1.88606 1.82261,-4.67637 5.08878,-5.55585 2.62742,-0.70749 3.67328,-0.60389 6.4474,0.63866 12.58636,5.63755 27.04088,24.24759 29.16873,37.55443 0.58889,3.68271 -0.24298,4.35582 -2.81213,2.27544 z"
         id="path43"
         transform="scale(0.26458333)"
         sodipodi:nodetypes="ssssssssssssssssssssss" /><path
         style="fill:#850505;fill-opacity:1;stroke-width:0.475424"
         d="m 130.89382,153.9587 c -0.61108,-0.60923 -0.31831,-1.24099 2.49611,-5.38623 1.13887,-1.6774 2.02757,-3.09279 1.97488,-3.14531 -0.0527,-0.0525 -1.05269,0.007 -2.22225,0.1312 -1.65066,0.17597 -2.2097,0.11534 -2.60633,-0.0292 -4.00325,-1.45869 0.45226,-1.25616 2.87079,-1.56832 0.91235,-0.11776 4.20725,-0.36775 4.85673,-0.44462 0.43215,-0.0512 0.0564,0.003 -0.0183,0.6222 -0.0844,0.69937 -1.48011,2.42396 -2.50745,4.00264 -1.17077,1.79906 -2.48369,3.59894 -2.30096,3.56267 1.06691,-0.21176 3.69234,-0.83379 4.89861,-1.03431 l -0.0442,1.71674 c -0.0134,0.51955 -0.11912,1.03225 -0.2711,1.15877 -0.14988,0.12478 -1.52159,0.32406 -3.04824,0.44285 -3.5155,0.27354 -3.77667,0.27167 -4.07835,-0.0291 z"
         id="path48"
         sodipodi:nodetypes="sssssssssscsssss" /><path
         style="fill:#850505;fill-opacity:1;stroke-width:0.475424"
         d="m 139.74645,153.01391 c -0.0607,-0.31264 -0.17298,-2.4515 -0.24944,-4.75302 -0.15188,-4.572 -0.45573,-4.80712 0.60898,-4.80712 0.52999,0 0.96608,-0.34224 1.06521,0.45755 0.0599,0.48318 0.14399,3.04668 0.21549,5.18218 0.14181,4.23594 0.31971,4.4227 -0.71993,4.4227 -0.46639,0 -0.83127,-0.0439 -0.92031,-0.50229 z"
         id="path49"
         sodipodi:nodetypes="sssssss" /><path
         style="fill:#850505;fill-opacity:1;stroke-width:0.475424"
         d="m 142.41064,148.05181 c -0.17131,-2.57508 -0.23582,-4.76123 -0.14333,-4.8581 0.0925,-0.0969 1.128,0.90183 2.30123,2.21937 1.17321,1.31753 2.19509,2.40103 2.27084,2.40781 0.0757,0.007 0.96463,-1.21991 1.97525,-2.72595 1.01063,-1.50605 1.91124,-2.74027 2.00138,-2.74273 0.26244,-0.007 0.38995,1.07796 0.62001,5.27609 0.24045,4.38766 0.56998,4.10472 -0.61514,4.36558 -0.5402,0.11891 -1.03458,0.12594 -1.06283,-0.72118 -0.0658,-1.97275 -0.10118,-4.07901 -0.20522,-4.2995 -0.0391,-0.083 -0.7777,1.27003 -1.29852,2.02145 -0.52083,0.75142 -1.06053,1.76829 -1.15387,1.82954 -0.0934,0.0613 -0.68535,-0.80679 -1.30469,-1.52898 -0.61932,-0.72219 -1.47819,-1.70384 -1.57198,-1.70128 -0.0938,0.003 0.14032,1.69783 0.17273,2.88711 0.0525,1.92636 0.18758,2.15289 -0.14097,2.20639 -0.67696,0.11018 -0.61126,0.14252 -1.25291,0.21632 -0.31482,0.0362 -0.282,-0.19286 -0.59193,-4.85193 z"
         id="path50"
         sodipodi:nodetypes="ssssssssssssssssss"
         inkscape:transform-center-y="-0.46772167" /><path
         style="fill:#850505;fill-opacity:1;stroke-width:0.475424"
         d="m 172.1448,150.44556 c -0.11637,-0.14075 -0.25989,-1.1542 -0.3189,-2.2521 -0.10582,-1.96892 -0.1213,-2.01814 -1.12978,-3.60434 -1.67977,-2.64198 -2.05231,-3.333 -1.91758,-3.55684 0.0705,-0.11708 0.4896,-0.21711 0.93137,-0.2223 0.78346,-0.009 0.82803,0.0309 1.81046,1.62742 0.66445,1.07981 1.076,1.56643 1.20936,1.4299 0.11118,-0.11382 0.56908,-0.93087 1.01754,-1.81565 0.80661,-1.59137 0.82484,-1.6095 1.69309,-1.68256 0.54371,-0.0458 0.87871,0.0135 0.88037,0.15562 0.001,0.12622 -0.58805,1.414 -1.31008,2.86175 l -1.3128,2.63224 0.025,2.13163 c 0.0246,2.09796 0.12142,2.06349 -0.39839,2.26802 -0.67606,0.0239 -1.17699,0.25655 -1.17968,0.0272 z"
         id="path52"
         sodipodi:nodetypes="ssscssssssscscss" /><path
         style="fill:#850505;fill-opacity:1;stroke-width:0.475424"
         d="m 179.45825,149.85955 c -1.36718,-0.49266 -1.83915,-1.59637 -0.96791,-2.26352 0.36181,-0.27707 0.47909,-0.26935 0.9696,0.0639 1.05094,0.71391 2.55961,0.20368 2.34698,-0.79374 -0.084,-0.3938 -0.43797,-0.63093 -1.67954,-1.12505 -1.79915,-0.716 -2.29236,-1.15497 -2.56504,-2.28293 -0.26235,-1.08526 0.2757,-2.56936 1.15879,-3.19625 0.98527,-0.69942 2.593,-0.7581 3.46014,-0.12627 1.21064,0.88212 0.79679,2.24029 -0.5483,1.79939 -1.19904,-0.39305 -1.61223,-0.38784 -2.00918,0.0253 -0.80346,0.83623 -0.39682,1.31822 1.87396,2.22116 1.58491,0.63021 2.10319,1.21206 2.1904,2.45904 0.15864,2.26836 -2.09937,3.98674 -4.2299,3.21901 z"
         id="path53"
         sodipodi:nodetypes="sssssssssssss" /><path
         style="fill:#850505;fill-opacity:1;stroke-width:0.475424"
         d="m 161.24286,151.07376 c -0.18702,-0.18702 0.19307,-1.35548 1.90314,-5.85064 1.47708,-3.88272 1.83236,-4.46305 2.48522,-4.05955 0.47705,0.29482 4.13042,8.21915 4.13042,8.95905 0,0.35637 -0.38809,0.44377 -0.89167,0.54299 -0.49224,0.097 -0.45093,-0.24907 -0.80466,-0.84861 l -0.44215,-0.74938 -2.07321,0.0998 c -1.23231,0.0593 -2.1038,0.19159 -2.14862,0.32606 -0.0415,0.12443 -0.39837,1.04749 -0.41633,1.39905 -0.0393,0.76827 -1.41591,0.50743 -1.74214,0.1812 z m 5.14975,-4.15865 c 0,-0.13069 -0.56103,-2.17369 -0.94766,-2.17369 -0.32364,0 -0.61989,1.68118 -0.87057,2.24626 -0.10385,0.23409 1.81823,0.14207 1.81823,-0.0725 z"
         id="path55"
         sodipodi:nodetypes="sssssscssssssssss" /><path
         style="fill:url(#linearGradient131);stroke-width:0.635291"
         d="m 445.80686,564.91739 c -1.62184,-3.07201 -1.87195,-4.18235 2.50697,-4.6644 14.25715,-1.5695 42.86951,-3.39338 44.58932,-2.91106 0.90796,0.25463 1.19873,1.04102 0.71743,1.94033 -0.40246,0.75199 -2.00144,1.44042 -3.98659,1.71638 -5.55029,0.77158 -38.03446,4.10815 -40.69832,4.10815 -1.44363,0 -2.56855,0.25131 -3.12881,-0.1894 z"
         id="path78"
         transform="scale(0.26458333)"
         sodipodi:nodetypes="sssssss" /><path
         style="fill:#850505;fill-opacity:1;stroke-width:0.635291"
         d="m 449.45901,599.39978 c -0.49898,-0.31472 -1.01227,-0.85109 -1.14065,-1.19195 -0.31055,-0.82454 0.31328,-2.02495 1.16318,-2.23826 2.71776,-0.68211 33.70007,-2.70865 34.43802,-2.25257 0.45661,0.2822 0.32552,1.20441 -0.25351,1.78344 -0.295,0.295 -1.3401,0.78461 -2.32244,1.08803 -2.92321,0.90288 -17.90991,2.61825 -28.07711,3.21368 -2.62734,0.15387 -2.98561,0.11601 -3.80749,-0.40237 z"
         id="path79"
         transform="scale(0.26458333)"
         sodipodi:nodetypes="ssssssss" /><path
         style="fill:#899305;fill-opacity:1;stroke-width:0.336174"
         d="m 157.15199,152.38055 c -1.15632,-2.01399 -5.05461,-9.67028 -5.07318,-9.96379 -0.0202,-0.31914 0.0565,-0.37518 0.67118,-0.49079 0.38168,-0.0718 0.78849,-0.0942 0.90402,-0.0499 0.11553,0.0443 0.64672,0.93936 1.18043,1.98896 0.53371,1.04959 1.02088,1.90835 1.0826,1.90835 0.4246,0 1.2245,-3.35453 1.38499,-3.22134 0.41359,1.04181 0.69791,2.19726 1.4149,3.07517 0.0552,-0.0211 0.45213,-0.84436 0.87347,-1.87636 0.42135,-1.032 0.85605,-1.99939 0.96601,-2.14976 0.26787,-0.36635 1.69805,-0.41047 1.76957,-0.0546 0.0451,0.22427 -4.5016,11.01393 -4.74285,11.25518 -0.0662,0.0662 -0.26017,-0.12334 -0.43114,-0.42112 z"
         id="path83"
         sodipodi:nodetypes="sssssssssssss" /><path
         style="fill:#899305;fill-opacity:1;stroke-width:1.27058"
         d="m 330.3853,592.70322 c -4.38896,-4.38896 -9.70736,-14.99127 -8.43538,-16.81605 0.52344,-0.75092 12.29492,-2.67797 12.804,-2.09608 0.69479,0.79417 6.97962,9.26521 7.39634,9.96918 0.26118,0.44123 -0.65737,1.26935 -2.66424,2.40196 -3.37872,1.90683 -4.88902,3.53332 -5.91466,6.36967 -0.37385,1.03386 -0.85926,1.87974 -1.07868,1.87974 -0.21943,0 -1.16775,-0.76879 -2.10738,-1.70842 z"
         id="path93"
         transform="scale(0.26458333)"
         sodipodi:nodetypes="ssssssss" /><path
         style="fill:url(#linearGradient120);stroke-width:0.562993"
         d="m 103.66596,149.31611 c 0.16595,-0.11062 0.38065,-0.18252 0.49782,-0.33206 0.072,-0.092 -0.004,-0.22155 0.021,-0.32991 0.0378,-0.16875 0.3354,-0.38038 0.46237,-0.48895 0.17259,-0.14755 0.19851,-0.0581 0.34962,-0.14287 0.4414,-0.24742 0.24313,-0.2313 0.7556,-0.45886 0.57383,-0.25482 0.75132,-0.26414 1.39842,-0.57169 0.73508,-0.34937 1.73608,-0.7266 2.37052,-0.72303 0.43427,0.002 0.79023,0.0495 1.38295,0.2005 3.61941,0.92207 5.10755,5.11138 5.20274,6.27893 0.0475,0.58259 0.23364,0.1307 -1.08162,-0.37612 -1.03073,-0.39718 -2.19455,-2.37918 -3.74287,-3.01942 -1.41124,-0.58355 -2.43471,-0.72107 -3.57593,-0.74556 -1.36668,-0.0293 -2.67725,0.62995 -4.04059,0.70923 z"
         id="path119"
         sodipodi:nodetypes="cscscsssssssscc" /><path
         style="fill:url(#linearGradient124);fill-opacity:1;stroke-width:0.608542"
         d="m 82.025716,140.80102 c -0.284838,0 -0.383439,0.10128 -0.383439,0.10128 -0.666178,0.18135 -0.871121,0.43976 -1.444548,0.82286 -0.05028,0.0251 -0.0058,0.11506 -0.397563,0.5203 -0.699625,0.87505 -1.028494,1.78546 -1.663247,2.91026 -0.162597,0.28813 0.306389,0.17082 0.330241,0.17082 0.127165,0 0.05531,0.006 0.18709,0.0936 0.03892,0.0259 0.09848,-0.0209 0.140316,0 0.03944,0.0197 0.0526,0.0772 0.09354,0.0935 0.04966,0.0199 0.178591,-0.0276 0.233862,0 0.234019,0.11701 -0.388011,-0.0308 0.23386,0.0935 0.05257,0.0105 0.321773,0.0113 0.327406,0 0.678195,-1.0926 1.102225,-1.82485 1.294617,-2.18041 0.197029,-0.3641 0.492228,-0.69915 0.728271,-0.84807 0.360793,-0.22763 0.720363,-0.54221 0.946245,-0.64351 -0.717021,-1.12708 -0.391336,-0.70767 -0.626651,-1.13413 z"
         id="path122"
         sodipodi:nodetypes="ccccssssccscsscc" /><path
         style="fill:#899305;fill-opacity:1;stroke-width:0.608542"
         d="m 115.73773,139.21735 c 9.16734,-0.95883 9.14396,-0.63142 9.14396,-0.63142 l -0.46772,0.93544 -5.61554,0.55555 -3.03732,0.35651 -0.33626,-0.60857 z"
         id="path126"
         sodipodi:nodetypes="ccccccc" /><path
         style="fill:url(#linearGradient128);fill-opacity:1;stroke-width:0.793673"
         d="m 117.34887,145.28359 c 12.08489,-1.15585 12.17718,-0.98297 12.17718,-0.98297 l -0.655,1.13876 -7.56404,0.86891 -4.09355,0.48756 -0.29828,-0.72913 z"
         id="path127"
         sodipodi:nodetypes="ccccccc" /><path
         style="fill:url(#linearGradient132);fill-opacity:1;stroke-width:0.786985"
         d="m 118.97093,151.1563 c 12.26905,-0.9218 12.51441,-0.80578 12.51441,-0.80578 l -0.78786,1.3356 -7.70073,0.64189 -4.18912,0.29258 -0.28978,-0.71199 z"
         id="path131"
         sodipodi:nodetypes="ccccccc" /><path
         style="fill:#850505;fill-opacity:1;stroke-width:0.787;stroke-dasharray:none"
         d="m 118.24332,154.3313 c 12.26905,-0.9218 12.11754,-1.10344 12.11754,-1.10344 l 0.0337,0.70093 0.63366,0.63751 -8.75906,0.93671 -4.18912,0.29258 -0.28978,-0.71199 z"
         id="path132"
         sodipodi:nodetypes="cccccccc" /></g><path
       style="fill:#899305;fill-opacity:1;stroke-width:1.27058"
       d=""
       id="path95"
       transform="scale(0.26458333)" /></g></svg>
